<?xml version="1.0" encoding="UTF-8"?>
<svg width="1047px" height="852px" viewBox="0 0 1047 852" version="1.1" xmlns="http://www.w3.org/2000/svg" xmlns:xlink="http://www.w3.org/1999/xlink">
    <title>GreenLeaves</title>
    <defs>
        <linearGradient x1="49.9944184%" y1="100%" x2="49.9944184%" y2="0%" id="linearGradient-1">
            <stop stop-color="#808080" stop-opacity="0.25" offset="0%"></stop>
            <stop stop-color="#808080" stop-opacity="0.12" offset="54%"></stop>
            <stop stop-color="#808080" stop-opacity="0.1" offset="100%"></stop>
        </linearGradient>
        <linearGradient x1="49.9936241%" y1="100.004506%" x2="49.9936241%" y2="1.2807187e-14%" id="linearGradient-2">
            <stop stop-color="#808080" stop-opacity="0.25" offset="0%"></stop>
            <stop stop-color="#808080" stop-opacity="0.12" offset="54%"></stop>
            <stop stop-color="#808080" stop-opacity="0.1" offset="100%"></stop>
        </linearGradient>
        <linearGradient x1="50.0026011%" y1="100%" x2="50.0026011%" y2="-0.0182621717%" id="linearGradient-3">
            <stop stop-color="#808080" stop-opacity="0.25" offset="0%"></stop>
            <stop stop-color="#808080" stop-opacity="0.12" offset="54%"></stop>
            <stop stop-color="#808080" stop-opacity="0.1" offset="100%"></stop>
        </linearGradient>
        <linearGradient x1="49.9975438%" y1="100%" x2="49.9975438%" y2="0%" id="linearGradient-4">
            <stop stop-color="#808080" stop-opacity="0.25" offset="0%"></stop>
            <stop stop-color="#808080" stop-opacity="0.12" offset="54%"></stop>
            <stop stop-color="#808080" stop-opacity="0.1" offset="100%"></stop>
        </linearGradient>
        <linearGradient x1="50.0024608%" y1="99.9961641%" x2="50.0024608%" y2="0.00165012633%" id="linearGradient-5">
            <stop stop-color="#808080" stop-opacity="0.25" offset="0%"></stop>
            <stop stop-color="#808080" stop-opacity="0.12" offset="54%"></stop>
            <stop stop-color="#808080" stop-opacity="0.1" offset="100%"></stop>
        </linearGradient>
        <linearGradient x1="50%" y1="100.025363%" x2="50%" y2="0%" id="linearGradient-6">
            <stop stop-color="#808080" stop-opacity="0.25" offset="0%"></stop>
            <stop stop-color="#808080" stop-opacity="0.12" offset="54%"></stop>
            <stop stop-color="#808080" stop-opacity="0.1" offset="100%"></stop>
        </linearGradient>
        <linearGradient x1="49.9693811%" y1="100.000101%" x2="49.9693811%" y2="-0.0172476432%" id="linearGradient-7">
            <stop stop-color="#808080" stop-opacity="0.25" offset="0%"></stop>
            <stop stop-color="#808080" stop-opacity="0.12" offset="54%"></stop>
            <stop stop-color="#808080" stop-opacity="0.1" offset="100%"></stop>
        </linearGradient>
    </defs>
    <g id="Page-1" stroke="none" stroke-width="1" fill="none" fill-rule="evenodd">
        <g id="undraw_taking_notes_tjaf" transform="translate(0.000000, 23.000000)">
            <ellipse id="Oval" fill="#F1FFE7" fill-rule="nonzero" opacity="0.313425409" cx="632.92" cy="810.86" rx="106.94" ry="17.92"></ellipse>
            <path d="M594.9556,102.339734 C553.507622,138.360273 499.733179,136.032613 452.661607,117.29495 C405.590035,98.5572865 362.229656,65.184461 316.332033,41.4714245 C278.763265,21.8881399 238.294811,8.79664432 196.560822,2.72558378 C138.062181,-5.5861022 72.7186587,4.53921888 31.9523293,62.7695137 C-13.4435253,127.614242 -9.95008002,244.56946 39.1475012,304.12846 C64.1223217,334.407438 96.8224848,349.265668 125.347555,372.910814 C153.872624,396.55596 180.258077,435.806127 177.834441,481.437962 C175.590683,523.684992 149.432446,556.117055 122.393747,576.48408 C101.480412,592.195785 75.7292702,609.362278 73.1636233,641.920422 C70.7210518,673.421421 92.372839,698.104316 113.058958,712.147865 C180.504228,757.944576 263.589529,757.498441 330.807583,710.993733 C354.788334,694.399457 376.818814,672.33518 401.964047,659.397269 C467.970282,625.452228 540.717257,659.620337 610.605099,672.121811 C669.766453,682.702965 730.433114,677.223266 788.070228,656.090053 C822.682792,643.404305 857.427898,624.007139 881.749473,587.870217 C899.282971,561.810123 910.208272,528.825241 920.461392,496.257398 C931.405627,461.523538 941.920676,426.547213 952.00654,391.328424 C958.056165,370.185512 964.020584,348.654657 965.582694,326.018163 C968.422893,285.022251 956.475121,244.550063 940.219712,209.906723 C901.659271,127.70153 836.647106,69.9464654 766.276431,55.2725087 C695.905756,40.598552 621.341053,69.257866 566.733484,131.959208" id="Path" fill="#F1FFE7" fill-rule="nonzero" opacity="0.375274368"></path>
            <g id="Group" opacity="0.35" transform="translate(337.000000, 174.000000)" fill="#1C3ED3" fill-rule="nonzero">
                <path d="M163.99,7.04 L163.99,0.39 L59.19,0.39 C54.37,0.39 57.31,7.08 57.31,7.08 L0.37,7.08 L0.37,156.23 L250.37,156.23 L250.37,7.04 L163.99,7.04 Z" id="Path" opacity="0.2"></path>
            </g>
            <path d="M833.41,292.29 C833.41,292.29 864.92,236.47 912.41,220.39 C932.35753,213.770749 949.618576,200.857423 961.6,183.59 C967.226341,175.353079 972.083451,166.616307 976.11,157.49" id="Path" stroke="#8388BF" stroke-width="2"></path>
            <path d="M975.33,157.85 C975.33,157.85 981.5,132.85 986.91,127.59 C992.316868,122.343295 1000.95329,122.473132 1006.2,127.88 C1011.44671,133.286868 1011.31687,141.923295 1005.91,147.17 C1000.51,152.42 975.33,157.85 975.33,157.85 Z" id="Path" fill="#1C3ED3" fill-rule="nonzero"></path>
            <path d="M960.19,184.73 C960.19,184.73 978.97,167.1 986.36,165.63 C991.140214,164.68146 996.063353,166.355186 999.27492,170.020702 C1002.48649,173.686219 1003.49857,178.786646 1001.92992,183.400703 C1000.36127,188.014759 996.450214,191.44146 991.67,192.39 C984.28,193.86 960.19,184.73 960.19,184.73 Z" id="Path" fill="#1C3ED3" fill-rule="nonzero"></path>
            <path d="M916.5,218.89 C916.5,218.89 941.61,213.14 948.73,215.61 C953.335154,217.205191 956.739467,221.136028 957.660568,225.921803 C958.581669,230.707579 956.879621,235.621219 953.195568,238.811804 C949.511515,242.002388 944.405154,242.985191 939.8,241.39 C932.68,238.93 916.5,218.89 916.5,218.89 Z" id="Path" fill="#1C3ED3" fill-rule="nonzero"></path>
            <path d="M892.21,269.6 C884.78,268.39 865.44,251.39 865.44,251.39 C865.44,251.39 889.22,241.49 896.66,242.71 C901.468795,243.504916 905.488222,246.80491 907.204202,251.366906 C908.920182,255.928903 908.072017,261.059826 904.979202,264.826907 C901.886387,268.593987 897.018795,270.424916 892.21,269.63 L892.21,269.6 Z" id="Path" fill="#1C3ED3" fill-rule="nonzero"></path>
            <path d="M939.19,165.22 C939.19,172.76 952.82,194.61 952.82,194.61 C952.82,194.61 966.48,172.77 966.48,165.23 C966.614367,160.267037 964.043433,155.622469 959.766378,153.101387 C955.489323,150.580304 950.180677,150.580304 945.903622,153.101387 C941.626567,155.622469 939.055633,160.267037 939.19,165.23 L939.19,165.22 Z" id="Path" fill="#1C3ED3" fill-rule="nonzero"></path>
            <path d="M883.96,198.92 C886.21,206.11 905.76,222.92 905.76,222.92 C905.76,222.92 912.25,197.99 910,190.8 C908.731176,185.93037 904.884216,182.154922 899.991637,180.977686 C895.099058,179.80045 889.955732,181.412685 886.61061,185.172123 C883.265489,188.931561 882.262037,194.227427 884,198.95 L883.96,198.92 Z" id="Path" fill="#1C3ED3" fill-rule="nonzero"></path>
            <path d="M834.76,239.04 C835.76,246.51 852.2,266.35 852.2,266.35 C852.2,266.35 862.81,242.88 861.81,235.41 C861.459399,230.334536 858.315246,225.875231 853.652416,223.840221 C848.989586,221.80521 843.581949,222.532237 839.622167,225.72651 C835.662385,228.920782 833.807646,234.052161 834.81,239.04 L834.76,239.04 Z" id="Path" fill="#1C3ED3" fill-rule="nonzero"></path>
            <path d="M1005.91,147.17 C1000.51,152.42 975.33,157.85 975.33,157.85 C975.33,157.85 981.5,132.85 986.91,127.59 C992.316868,122.343295 1000.95329,122.473132 1006.2,127.88 C1011.44671,133.286868 1011.31687,141.923295 1005.91,147.17 L1005.91,147.17 Z" id="Path" stroke="#979797" fill="#90BE6D" fill-rule="nonzero" opacity="0.765113467"></path>
            <path d="M991.67,192.39 C984.28,193.86 960.19,184.73 960.19,184.73 C960.19,184.73 978.97,167.1 986.36,165.63 C991.140214,164.68146 996.063353,166.355186 999.27492,170.020702 C1002.48649,173.686219 1003.49857,178.786646 1001.92992,183.400703 C1000.36127,188.014759 996.450214,191.44146 991.67,192.39 L991.67,192.39 Z" id="Path" fill="#90BE6D" fill-rule="nonzero" opacity="0.70014881"></path>
            <path d="M916.5,218.89 C916.5,218.89 941.61,213.14 948.73,215.61 C953.335154,217.205191 956.739467,221.136028 957.660568,225.921803 C958.581669,230.707579 956.879621,235.621219 953.195568,238.811804 C949.511515,242.002388 944.405154,242.985191 939.8,241.39 C932.68,238.93 916.5,218.89 916.5,218.89 Z" id="Path" fill="#90BE6D" fill-rule="nonzero" opacity="0.793852307"></path>
            <path d="M892.21,269.6 C884.78,268.39 865.44,251.39 865.44,251.39 C865.44,251.39 889.22,241.49 896.66,242.71 C901.468795,243.504916 905.488222,246.80491 907.204202,251.366906 C908.920182,255.928903 908.072017,261.059826 904.979202,264.826907 C901.886387,268.593987 897.018795,270.424916 892.21,269.63 L892.21,269.6 Z" id="Path" fill="#90BE6D" fill-rule="nonzero" opacity="0.70359003"></path>
            <path d="M939.19,165.22 C939.19,172.76 952.82,194.61 952.82,194.61 C952.82,194.61 966.48,172.77 966.48,165.23 C966.614367,160.267037 964.043433,155.622469 959.766378,153.101387 C955.489323,150.580304 950.180677,150.580304 945.903622,153.101387 C941.626567,155.622469 939.055633,160.267037 939.19,165.23 L939.19,165.22 Z" id="Path" fill="#90BE6D" fill-rule="nonzero" opacity="0.702450707"></path>
            <path d="M883.96,198.92 C886.21,206.11 905.76,222.92 905.76,222.92 C905.76,222.92 912.25,197.99 910,190.8 C908.731176,185.93037 904.884216,182.154922 899.991637,180.977686 C895.099058,179.80045 889.955732,181.412685 886.61061,185.172123 C883.265489,188.931561 882.262037,194.227427 884,198.95 L883.96,198.92 Z" id="Path" fill="#90BE6D" fill-rule="nonzero" opacity="0.802687872"></path>
            <path d="M834.76,239.04 C835.76,246.51 852.2,266.35 852.2,266.35 C852.2,266.35 862.81,242.88 861.81,235.41 C861.459399,230.334536 858.315246,225.875231 853.652416,223.840221 C848.989586,221.80521 843.581949,222.532237 839.622167,225.72651 C835.662385,228.920782 833.807646,234.052161 834.81,239.04 L834.76,239.04 Z" id="Path" fill="#000000" fill-rule="nonzero" opacity="0.25"></path>
            <path d="M835.23,291.18 C835.23,291.18 841.41,227.38 878.23,193.45 C893.785108,179.319901 904.330685,160.520348 908.28,139.88 C910.087315,130.066839 910.987778,120.108186 910.970258,110.13" id="Path" stroke="#535461" stroke-width="2"></path>
            <path d="M934.13,88.61 C931.31,95.61 910.49,110.77 910.49,110.77 C910.49,110.77 906,85.39 908.82,78.39 C910.642055,73.868804 914.737732,70.663101 919.56423,69.9804485 C924.390727,69.297796 929.214786,71.241905 932.21923,75.0804485 C935.223673,78.918992 935.952055,84.068804 934.13,88.59 L934.13,88.61 Z" id="Path" fill="#90BE6D" fill-rule="nonzero"></path>
            <path d="M939.44,135.75 C933.28,140.09 907.56,141.5 907.56,141.5 C907.56,141.5 917.56,117.77 923.74,113.44 C927.725298,110.635465 932.904066,110.170098 937.325514,112.2192 C941.746961,114.268302 944.739364,118.520564 945.175514,123.3742 C945.611664,128.227837 943.425298,132.945465 939.44,135.75 L939.44,135.75 Z" id="Path" fill="#90BE6D" fill-rule="nonzero"></path>
            <path d="M911.86,201.54 C904.35,202.17 881.44,190.41 881.44,190.41 C881.44,190.41 902.07,174.98 909.58,174.35 C914.437026,173.942717 919.142386,176.157565 921.923616,180.160231 C924.704846,184.162897 925.139412,189.345282 923.063616,193.755231 C920.98782,198.16518 916.717026,201.132717 911.86,201.54 L911.86,201.54 Z" id="Path" fill="#90BE6D" fill-rule="nonzero"></path>
            <path d="M879.79,246.61 C872.5,248.51 847.92,240.78 847.92,240.78 C847.92,240.78 865.65,222.09 872.92,220.2 C880.21292,218.308425 887.658425,222.68708 889.55,229.98 C891.441575,237.27292 887.06292,244.718425 879.77,246.61 L879.79,246.61 Z" id="Path" fill="#90BE6D" fill-rule="nonzero"></path>
            <path d="M880.44,132.15 C883.49,139.04 904.81,153.49 904.81,153.49 C904.81,153.49 908.44,127.99 905.39,121.1 C902.352434,114.196441 894.293559,111.062434 887.39,114.1 C880.486441,117.137566 877.352434,125.196441 880.39,132.1 L880.44,132.15 Z" id="Path" fill="#90BE6D" fill-rule="nonzero"></path>
            <path d="M843.6,185.39 C848.6,191.05 873.24,198.47 873.24,198.47 C873.24,198.47 869.07,173.05 864.1,167.38 C859.129437,161.719082 850.510919,161.159438 844.850001,166.130001 C839.189082,171.100563 838.629438,179.719081 843.6,185.38 L843.6,185.39 Z" id="Path" fill="#90BE6D" fill-rule="nonzero"></path>
            <path d="M814.88,241.95 C818.88,248.37 841.88,259.85 841.88,259.85 C841.88,259.85 842.13,234.09 838.13,227.67 C834.110531,221.42775 825.838947,219.5428 819.511783,223.427232 C813.184619,227.311665 811.122397,235.540843 814.87,241.95 L814.88,241.95 Z" id="Path" fill="#1C3ED3" fill-rule="nonzero"></path>
            <path d="M181.490027,544.415027 C181.490027,544.415027 142.490027,496.085027 144.940027,447.585027 C146.105133,427.252835 140.645389,407.091084 129.380027,390.125027 C123.967205,382.114038 117.831542,374.61601 111.050027,367.725027" id="Path" stroke="#535461" stroke-width="2"></path>
            <path d="M112.420027,337.155027 C115.220027,343.905027 111.130027,368.535027 111.130027,368.535027 C111.130027,368.535027 90.8100267,354.035027 88.0100267,347.285027 C85.2154659,340.538869 88.4188685,332.804588 95.1650267,330.010027 C101.911185,327.215466 109.645466,330.418869 112.440027,337.165027 L112.420027,337.155027 Z" id="Path" fill="#90BE6D" fill-rule="nonzero"></path>
            <path d="M148.130027,366.165027 C146.810027,373.345027 129.980027,391.775027 129.980027,391.775027 C129.980027,391.775027 120.770027,368.535027 122.130027,361.375027 C122.929654,356.676652 126.196303,352.772374 130.679877,351.1563 C135.16345,349.540227 140.169816,350.462553 143.783113,353.570319 C147.39641,356.678086 149.05724,361.490158 148.130027,366.165027 L148.130027,366.165027 Z" id="Path" fill="#90BE6D" fill-rule="nonzero"></path>
            <path d="M173.670027,430.385027 C168.900027,435.925027 145.060027,443.335027 145.060027,443.335027 C145.060027,443.335027 148.860027,418.665027 153.630027,413.125027 C158.478389,407.95026 166.54603,407.522441 171.914488,412.15542 C177.282945,416.788399 178.039892,424.831836 173.630027,430.385027 L173.670027,430.385027 Z" id="Path" fill="#90BE6D" fill-rule="nonzero"></path>
            <path d="M154.07,488.19 C150.31,494.45 128.07,505.79 128.07,505.79 C128.07,505.79 127.64,480.79 131.41,474.57 C135.21214,468.406919 143.264988,466.449779 149.471651,470.180351 C155.678315,473.910923 157.728504,481.940585 154.07,488.19 L154.07,488.19 Z" id="Path" fill="#1C3ED3" fill-rule="nonzero"></path>
            <path d="M99.0188763,393.53737 C105.808876,396.22737 130.368876,391.75737 130.368876,391.75737 C130.368876,391.75737 115.568876,371.65737 108.788876,368.95737 C102.05859,366.488858 94.5866687,369.829756 91.9387712,376.491509 C89.2908737,383.153261 92.4304381,390.711988 99.0188763,393.53737 L99.0188763,393.53737 Z" id="Path" fill="#90BE6D" fill-rule="nonzero"></path>
            <path d="M113.262939,422.553004 C120.542939,423.093004 142.642939,411.483004 142.642939,411.483004 C142.642939,411.483004 122.502939,396.723004 115.222939,396.183004 C110.512392,395.825738 105.969068,398.008657 103.304393,401.909478 C100.639718,405.810298 100.258521,410.836392 102.304393,415.094478 C104.350266,419.352565 108.512392,422.195738 113.222939,422.553004 L113.262939,422.553004 Z" id="Path" fill="#90BE6D" fill-rule="nonzero"></path>
            <path d="M134.010027,524.165027 C141.090027,525.935027 164.840027,518.165027 164.840027,518.165027 C164.840027,518.165027 147.480027,500.275027 140.400027,498.535027 C133.314213,496.770477 126.139577,501.084213 124.375027,508.170027 C122.610477,515.25584 126.924213,522.430477 134.010027,524.195027 L134.010027,524.165027 Z" id="Path" fill="#90BE6D" fill-rule="nonzero"></path>
            <path d="M986.63,630.39 C986.63,630.39 994.26,640.39 983.11,655.39 C971.96,670.39 962.76,683.17 966.48,692.57 C966.48,692.57 983.31,664.57 997,664.2 C1010.69,663.83 1001.7,647.21 986.63,630.39 Z" id="Path" fill="#F1FFE7" fill-rule="nonzero"></path>
            <path d="M986.63,630.39 C987.295139,631.354466 987.820353,632.40826 988.19,633.52 C1001.55,649.22 1008.67,663.87 995.83,664.24 C983.83,664.58 969.51,685.97 966.07,691.38 C966.18406,691.797192 966.320933,692.20781 966.48,692.61 C966.48,692.61 983.31,664.61 997,664.24 C1010.69,663.87 1001.7,647.21 986.63,630.39 Z" id="Path" fill="#000000" fill-rule="nonzero" opacity="0.1"></path>
            <path d="M1000.82,643.1 C1000.82,646.62 1000.42,649.46 999.94,649.46 C999.46,649.46 999.06,646.62 999.06,643.1 C999.06,639.58 999.55,641.25 1000.06,641.25 C1000.57,641.25 1000.82,639.59 1000.82,643.1 Z" id="Path" fill="#FFD037" fill-rule="nonzero"></path>
            <path d="M1005.68,647.3 C1002.6,648.98 999.91,649.99 999.68,649.57 C999.45,649.15 1001.76,647.43 1004.84,645.75 C1007.92,644.07 1006.71,645.29 1006.94,645.75 C1007.17,646.21 1008.77,645.62 1005.68,647.3 Z" id="Path" fill="#FFD037" fill-rule="nonzero"></path>
            <path d="M946.33,630.39 C946.33,630.39 938.7,640.39 949.85,655.39 C961,670.39 970.2,683.17 966.48,692.57 C966.48,692.57 949.65,664.57 935.96,664.2 C922.27,663.83 931.26,647.21 946.33,630.39 Z" id="Path" fill="#F1FFE7" fill-rule="nonzero"></path>
            <path d="M946.33,630.39 C945.659943,631.351556 945.134363,632.406085 944.77,633.52 C931.4,649.22 924.29,663.87 937.13,664.24 C949.13,664.58 963.45,685.97 966.89,691.38 C966.77,691.79 966.64,692.2 966.48,692.61 C966.48,692.61 949.65,664.61 935.96,664.24 C922.27,663.87 931.26,647.21 946.33,630.39 Z" id="Path" fill="#000000" fill-rule="nonzero" opacity="0.1"></path>
            <path d="M932.13,643.1 C932.13,646.62 932.53,649.46 933.01,649.46 C933.49,649.46 933.89,646.62 933.89,643.1 C933.89,639.58 933.4,641.25 932.89,641.25 C932.38,641.25 932.13,639.59 932.13,643.1 Z" id="Path" fill="#FFD037" fill-rule="nonzero"></path>
            <path d="M927.27,647.3 C930.36,648.98 933.05,649.99 933.27,649.57 C933.49,649.15 931.19,647.43 928.11,645.75 C925.03,644.07 926.24,645.29 926.01,645.75 C925.78,646.21 924.19,645.62 927.27,647.3 Z" id="Path" fill="#FFD037" fill-rule="nonzero"></path>
            <ellipse id="Oval" fill="#F1FFE7" fill-rule="nonzero" opacity="0.352604167" cx="966.48" cy="756.69" rx="79.78" ry="12.24"></ellipse>
            <path d="M1007.54,679.16 L1007.16,682.27 L1006.62,686.67 L1006.4,688.51 L1005.87,692.91 L1005.63,694.75 L1005.1,699.15 L998.99,749.15 C998.45,753.62 991.15,757.15 982.34,757.15 L950.62,757.15 C941.81,757.15 934.52,753.67 933.97,749.15 L927.86,699.15 L927.32,694.75 L927.1,692.91 L926.56,688.51 L926.33,686.67 L925.8,682.27 L925.41,679.16 C925.11,676.63 929.06,674.5 934.04,674.5 L998.92,674.5 C1003.9,674.5 1007.85,676.63 1007.54,679.16 Z" id="Path" fill="#65617D" fill-rule="nonzero"></path>
            <polygon id="Path" fill="#9D9CB5" fill-rule="nonzero" points="1007.16 682.27 1006.62 686.67 926.33 686.67 925.8 682.27"></polygon>
            <polygon id="Path" fill="#9D9CB5" fill-rule="nonzero" points="1006.4 688.51 1005.86 692.91 927.1 692.91 926.55 688.51"></polygon>
            <polygon id="Path" fill="#9D9CB5" fill-rule="nonzero" points="1005.63 694.75 1005.1 699.14 927.86 699.14 927.32 694.75"></polygon>
            <path d="M803.68,162.96 L802.84,162.96 C804.16,161.46 804.84,159.96 804.73,158.63 L797.13,151.03 L800.03,144.53 L790.26,144.53 L792.07,139.46 L786.28,139.46 L722.22,160.8 C722.22,160.8 722.15,161.69 722.22,162.96 L680.97,162.96 L680.97,348.81 L860.13,348.81 L860.13,162.96 L803.68,162.96 Z" id="Path" fill="url(#linearGradient-1)" fill-rule="nonzero"></path>
            <rect id="Rectangle" fill="#DBC998" fill-rule="nonzero" x="682.3" y="163.61" width="176.46" height="183.24"></rect>
            <path d="M803.19,163.61 C794.83,175.92 738.99,192.13 738.99,192.13 L739.34,179.3 L729.01,179.3 C729.591661,176.761988 728.425855,174.145037 726.15,172.88 C723.15,171.23 722.86,165.88 722.9,163.61 L803.19,163.61 Z" id="Path" fill="#000000" fill-rule="nonzero" opacity="0.1"></path>
            <path d="M786.04,140.44 L722.95,161.44 C722.95,161.44 722.23,169.64 726.15,171.77 C728.420676,173.039772 729.584679,175.652671 729.01,178.19 L739.34,178.19 L738.99,191.02 C738.99,191.02 805.29,171.77 804.22,159.3 L796.74,151.81 L799.59,145.39 L789.96,145.39 L791.75,140.39 L786.04,140.44 Z" id="Path" fill="#9D9CB5" fill-rule="nonzero"></path>
            <g id="Group" opacity="0.35" transform="translate(714.000000, 223.000000)" fill="#1C3ED3" fill-rule="nonzero">
                <rect id="Rectangle" opacity="0.2" x="0.92" y="0.01" width="111.22" height="3.12"></rect>
            </g>
            <g id="Group" opacity="0.35" transform="translate(714.000000, 239.000000)" fill="#1C3ED3" fill-rule="nonzero">
                <rect id="Rectangle" opacity="0.2" x="0.92" y="0.46" width="111.22" height="3.12"></rect>
            </g>
            <g id="Group" opacity="0.35" transform="translate(714.000000, 255.000000)" fill="#1C3ED3" fill-rule="nonzero">
                <rect id="Rectangle" opacity="0.2" x="0.92" y="0.9" width="111.22" height="3.12"></rect>
            </g>
            <g id="Group" opacity="0.35" transform="translate(714.000000, 272.000000)" fill="#1C3ED3" fill-rule="nonzero">
                <rect id="Rectangle" opacity="0.2" x="0.92" y="0.34" width="111.22" height="3.12"></rect>
            </g>
            <g id="Group" opacity="0.35" transform="translate(714.000000, 288.000000)" fill="#1C3ED3" fill-rule="nonzero">
                <rect id="Rectangle" opacity="0.2" x="0.92" y="0.78" width="111.22" height="3.12"></rect>
            </g>
            <g id="Group" opacity="0.35" transform="translate(714.000000, 305.000000)" fill="#1C3ED3" fill-rule="nonzero">
                <rect id="Rectangle" opacity="0.2" x="0.92" y="0.23" width="111.22" height="3.12"></rect>
            </g>
            <path d="M205.8,147.9 L205.38,147.9 C208.54,139.8 211.46,131.9 211.33,130.39 C211.05,127.39 205.04,133.91 204.76,132.28 C204.48,130.65 204.76,124.47 202.03,124.47 C199.3,124.47 197.65,127.68 196.03,127.68 C194.41,127.68 187.82,126.6 187.82,126.6 L179.43,147.9 L116.23,147.9 L116.23,346.39 L273.07,346.39 L273.07,147.9 L205.8,147.9 Z" id="Path" fill="url(#linearGradient-2)" fill-rule="nonzero"></path>
            <rect id="Rectangle" fill="#DBC998" fill-rule="nonzero" x="117.99" y="149" width="153.29" height="196.06"></rect>
            <path d="M205.55,149 C202.32,157.39 198.68,166.23 197.85,168.34 C196.24,172.34 195.18,170.21 193.3,169.68 C191.42,169.15 189.03,170.21 187.96,169.68 C186.89,169.15 180.61,169.68 180.61,169.68 C180.680192,168.697919 180.680192,167.712081 180.61,166.73 C180.47,165.67 173.25,166.73 173.25,166.73 L180.13,149 L205.55,149 Z" id="Path" fill="#000000" fill-rule="nonzero" opacity="0.1"></path>
            <path d="M187.96,127.97 L173.25,165.67 C173.25,165.67 180.47,164.6 180.6,165.67 C180.675496,166.648546 180.675496,167.631454 180.6,168.61 C180.6,168.61 186.89,168.07 187.96,168.61 C189.03,169.15 191.43,168.07 193.3,168.61 C195.17,169.15 196.24,171.28 197.85,167.27 C199.46,163.26 211.22,134.65 210.95,131.71 C210.68,128.77 204.8,135.19 204.53,133.58 C204.26,131.97 204.53,125.87 201.86,125.87 C199.19,125.87 197.58,129.04 195.98,129.04 C194.38,129.04 187.96,127.97 187.96,127.97 Z" id="Path" fill="#9D9CB5" fill-rule="nonzero"></path>
            <g id="Group" opacity="0.35" transform="translate(139.000000, 201.000000)" fill="#1C3ED3" fill-rule="nonzero">
                <rect id="Rectangle" opacity="0.2" x="0.03" y="0.04" width="111.22" height="3.12"></rect>
            </g>
            <g id="Group" opacity="0.35" transform="translate(139.000000, 212.000000)" fill="#1C3ED3" fill-rule="nonzero">
                <rect id="Rectangle" opacity="0.2" x="0.03" y="0.81" width="111.22" height="3.12"></rect>
            </g>
            <g id="Group" opacity="0.35" transform="translate(139.000000, 224.000000)" fill="#1C3ED3" fill-rule="nonzero">
                <rect id="Rectangle" opacity="0.2" x="0.03" y="0.57" width="111.22" height="3.12"></rect>
            </g>
            <g id="Group" opacity="0.35" transform="translate(139.000000, 236.000000)" fill="#1C3ED3" fill-rule="nonzero">
                <rect id="Rectangle" opacity="0.2" x="0.03" y="0.34" width="111.22" height="3.12"></rect>
            </g>
            <g id="Group" opacity="0.35" transform="translate(139.000000, 248.000000)" fill="#1C3ED3" fill-rule="nonzero">
                <rect id="Rectangle" opacity="0.2" x="0.03" y="0.1" width="111.22" height="3.12"></rect>
            </g>
            <g id="Group" opacity="0.35" transform="translate(139.000000, 259.000000)" fill="#1C3ED3" fill-rule="nonzero">
                <rect id="Rectangle" opacity="0.2" x="0.03" y="0.86" width="111.22" height="3.12"></rect>
            </g>
            <path d="M784.25,441.39 L783.83,441.39 C787.71,431.39 791.29,421.62 791.12,419.79 C790.79,416.12 783.41,424.13 783.12,422.13 C782.83,420.13 783.12,412.49 779.77,412.49 C776.42,412.49 774.41,416.49 772.4,416.49 C770.39,416.49 762.34,415.15 762.34,415.15 L752,441.39 L674.55,441.39 L674.55,686.28 L866.78,686.28 L866.78,441.39 L784.25,441.39 Z" id="Path" fill="url(#linearGradient-3)" fill-rule="nonzero"></path>
            <rect id="Rectangle" fill="#DBC998" fill-rule="nonzero" x="676.09" y="443.09" width="188.88" height="241.6"></rect>
            <path d="M783.88,443.09 C779.94,453.35 775.52,464.09 774.49,466.67 C772.49,471.61 771.2,468.97 768.89,468.32 C766.58,467.67 763.62,468.97 762.3,468.32 C760.98,467.67 753.24,468.32 753.24,468.32 C753.326437,467.111544 753.326437,465.898456 753.24,464.69 C753.07,463.38 744.18,464.69 744.18,464.69 L752.61,443.09 L783.88,443.09 Z" id="Path" fill="#000000" fill-rule="nonzero" opacity="0.1"></path>
            <path d="M762.3,417.17 L744.18,463.62 C744.18,463.62 753.07,462.3 753.24,463.62 C753.326472,464.825117 753.326472,466.034883 753.24,467.24 C753.24,467.24 760.98,466.59 762.3,467.24 C763.62,467.89 766.58,466.59 768.89,467.24 C771.2,467.89 772.51,470.54 774.49,465.6 C776.47,460.66 790.96,425.4 790.63,421.78 C790.3,418.16 783.05,426.06 782.72,424.09 C782.39,422.12 782.72,414.58 779.43,414.58 C776.14,414.58 774.16,418.49 772.18,418.49 C770.2,418.49 762.3,417.17 762.3,417.17 Z" id="Path" fill="#9D9CB5" fill-rule="nonzero"></path>
            <g id="Group" opacity="0.35" transform="translate(714.000000, 510.000000)" fill="#1C3ED3" fill-rule="nonzero">
                <rect id="Rectangle" opacity="0.2" x="0.92" y="0.6" width="111.22" height="7.93"></rect>
            </g>
            <g id="Group" opacity="0.35" transform="translate(714.000000, 562.000000)" fill="#1C3ED3" fill-rule="nonzero">
                <rect id="Rectangle" opacity="0.2" x="0.92" y="0.11" width="111.22" height="7.93"></rect>
            </g>
            <g id="Group" opacity="0.35" transform="translate(714.000000, 613.000000)" fill="#1C3ED3" fill-rule="nonzero">
                <rect id="Rectangle" opacity="0.2" x="0.92" y="0.63" width="111.22" height="7.93"></rect>
            </g>
            <polygon id="Path" fill="url(#linearGradient-4)" fill-rule="nonzero" points="237.97 449.76 237.97 420.19 196.46 420.19 196.46 449.76 109.79 449.76 109.79 682.74 313.36 682.74 313.36 449.76"></polygon>
            <rect id="Rectangle" fill="#DBC998" fill-rule="nonzero" x="111.94" y="450.94" width="199.27" height="230.28"></rect>
            <rect id="Rectangle" fill="#000000" fill-rule="nonzero" opacity="0.1" x="196.78" y="450.94" width="40.64" height="31.37"></rect>
            <rect id="Rectangle" fill="#9D9CB5" fill-rule="nonzero" x="196.78" y="421.71" width="40.64" height="59.53"></rect>
            <g id="Group" opacity="0.35" transform="translate(155.000000, 506.000000)" fill="#1C3ED3" fill-rule="nonzero">
                <rect id="Rectangle" opacity="0.2" x="0.96" y="0.64" width="111.22" height="7.93"></rect>
            </g>
            <g id="Group" opacity="0.35" transform="translate(155.000000, 522.000000)" fill="#1C3ED3" fill-rule="nonzero">
                <rect id="Rectangle" opacity="0.2" x="0.96" y="0.41" width="111.22" height="7.93"></rect>
            </g>
            <g id="Group" opacity="0.35" transform="translate(155.000000, 538.000000)" fill="#1C3ED3" fill-rule="nonzero">
                <rect id="Rectangle" opacity="0.2" x="0.96" y="0.19" width="111.22" height="7.93"></rect>
            </g>
            <g id="Group" opacity="0.35" transform="translate(155.000000, 553.000000)" fill="#1C3ED3" fill-rule="nonzero">
                <rect id="Rectangle" opacity="0.2" x="0.96" y="0.96" width="111.22" height="7.93"></rect>
            </g>
            <g id="Group" opacity="0.35" transform="translate(237.000000, 571.000000)" fill="#1C3ED3" fill-rule="nonzero">
                <rect id="Rectangle" opacity="0.2" x="0.42" y="0.52" width="29.77" height="24.06"></rect>
            </g>
            <g id="Group" opacity="0.35" transform="translate(155.000000, 601.000000)" fill="#1C3ED3" fill-rule="nonzero">
                <rect id="Rectangle" opacity="0.2" x="0.96" y="0.28" width="29.77" height="24.06"></rect>
            </g>
            <path d="M523.86,449.39 L523.58,449.39 C526.82,436.72 529.26,426.63 529.26,426.63 L515.44,433.13 C515.44,433.13 505.63,420.13 502,422.3 C498.37,424.47 490.4,429.88 490.4,429.88 L479.82,424.46 L475.77,449.39 L392.22,449.39 L392.22,629.28 L397.59,632.49 C402.02,630.9 409.31,628.2 409.31,628.2 L405.96,637.5 L408.22,638.84 L412.03,635.39 L413.44,641.98 L417.97,644.69 L425.12,640.14 L423.12,647.8 L429.83,651.8 L449.34,644.47 L443.46,659.95 L447.33,662.27 L456.16,660.72 C456.16,660.72 455.76,663.81 455.51,667.16 L464.37,672.46 C468,671.05 471.42,669.66 471.42,669.66 C471.42,669.66 471.07,673.04 470.91,676.36 L476.85,679.92 C481.54,677.18 487.51,673.45 487.51,673.45 L482.51,682.75 L595.41,682.75 L595.41,449.39 L523.86,449.39 Z" id="Path" fill="url(#linearGradient-5)" fill-rule="nonzero"></path>
            <path d="M593.19,450.94 L593.19,681.22 L482.46,681.22 L487.4,672.05 C487.4,672.05 481.55,675.72 476.95,678.43 L471.13,674.91 C471.29,671.64 471.64,668.3 471.64,668.3 C471.64,668.3 468.28,669.67 464.72,671.06 L456.03,665.83 C456.28,662.53 456.66,659.48 456.66,659.48 L448.01,661.01 L444.22,658.72 L449.98,643.44 L430.85,650.68 L424.26,646.68 L426.18,639.12 L419.18,643.61 L414.74,640.94 L413.36,634.44 L409.62,637.86 L407.4,636.53 L410.69,627.36 C410.69,627.36 403.54,630.02 399.19,631.59 L393.93,628.43 L393.93,450.94 L593.19,450.94 Z" id="Path" fill="#DBC998" fill-rule="nonzero"></path>
            <g id="Group" opacity="0.35" transform="translate(437.000000, 522.000000)" fill="#1C3ED3" fill-rule="nonzero">
                <rect id="Rectangle" opacity="0.2" x="0.94" y="0.41" width="111.22" height="7.93"></rect>
            </g>
            <g id="Group" opacity="0.35" transform="translate(437.000000, 546.000000)" fill="#1C3ED3" fill-rule="nonzero">
                <rect id="Rectangle" opacity="0.2" x="0.94" y="0.12" width="111.22" height="7.93"></rect>
            </g>
            <g id="Group" opacity="0.35" transform="translate(437.000000, 569.000000)" fill="#1C3ED3" fill-rule="nonzero">
                <rect id="Rectangle" opacity="0.2" x="0.94" y="0.82" width="111.22" height="7.93"></rect>
            </g>
            <g id="Group" opacity="0.35" transform="translate(437.000000, 593.000000)" fill="#1C3ED3" fill-rule="nonzero">
                <rect id="Rectangle" opacity="0.2" x="0.94" y="0.53" width="22.28" height="7.93"></rect>
            </g>
            <path d="M523.01,450.94 C517.59,472.32 509.69,501.94 507.63,501.42 C504.43,500.55 499.43,494.42 499.43,494.42 C499.43,494.42 487.67,505.47 481.97,499.77 C476.27,494.07 468.42,497.98 468.42,497.98 L476.02,450.93 L523.01,450.94 Z" id="Path" fill="#000000" fill-rule="nonzero" opacity="0.1"></path>
            <path d="M479.83,426.39 L468.42,496.97 C468.42,496.97 476.26,493.05 481.96,498.76 C487.66,504.47 499.43,493.39 499.43,493.39 C499.43,493.39 504.43,499.51 507.63,500.39 C510.83,501.27 528.31,428.53 528.31,428.53 L514.76,434.95 C514.76,434.95 505.14,422.11 501.57,424.25 C498,426.39 490.2,431.74 490.2,431.74 L479.83,426.39 Z" id="Path" fill="#9D9CB5" fill-rule="nonzero"></path>
            <path d="M573.03,118.45 L573.03,111.68 L466.91,111.68 C462.04,111.68 465.02,118.45 465.02,118.45 L407.36,118.45 L407.36,269.39 L660.46,269.39 L660.46,118.39 L573.03,118.45 Z" id="Path" fill="url(#linearGradient-6)" fill-rule="nonzero"></path>
            <rect id="Rectangle" fill="#DBC998" fill-rule="nonzero" x="408.96" y="119.17" width="249.98" height="149.19"></rect>
            <path d="M572.59,143.5 L473.4,143.5 C473.4,143.5 472.33,132 475.81,129.87 C479.29,127.74 465.91,120.24 465.91,120.24 C465.761858,119.89021 465.631688,119.533077 465.52,119.17 L572.59,119.17 L572.59,122.65 C572.59,122.65 586.23,134.68 572.59,143.5 Z" id="Path" fill="#000000" fill-rule="nonzero" opacity="0.1"></path>
            <path d="M467.78,112.49 L572.59,112.49 L572.59,121.58 C572.59,121.58 586.23,133.58 572.59,142.43 L473.4,142.43 C473.4,142.43 472.33,130.93 475.81,128.8 C479.29,126.67 465.91,119.17 465.91,119.17 C465.91,119.17 462.97,112.49 467.78,112.49 Z" id="Path" fill="#9D9CB5" fill-rule="nonzero"></path>
            <g id="Group" opacity="0.35" transform="translate(439.000000, 165.000000)" fill="#1C3ED3" fill-rule="nonzero">
                <rect id="Rectangle" opacity="0.2" x="0.67" y="0.96" width="188.58" height="3.12"></rect>
            </g>
            <g id="Group" opacity="0.35" transform="translate(439.000000, 177.000000)" fill="#1C3ED3" fill-rule="nonzero">
                <rect id="Rectangle" opacity="0.2" x="0.67" y="0.72" width="112.65" height="3.12"></rect>
            </g>
            <g id="Group" opacity="0.35" transform="translate(439.000000, 189.000000)" fill="#1C3ED3" fill-rule="nonzero">
                <rect id="Rectangle" opacity="0.2" x="0.67" y="0.49" width="188.58" height="3.12"></rect>
            </g>
            <g id="Group" opacity="0.35" transform="translate(439.000000, 201.000000)" fill="#1C3ED3" fill-rule="nonzero">
                <rect id="Rectangle" opacity="0.2" x="0.67" y="0.25" width="188.58" height="3.12"></rect>
            </g>
            <g id="Group" opacity="0.35" transform="translate(439.000000, 213.000000)" fill="#1C3ED3" fill-rule="nonzero">
                <rect id="Rectangle" opacity="0.2" x="0.67" y="0.01" width="188.58" height="3.12"></rect>
            </g>
            <path d="M705.82,807.66 C704.03,800.04 702.93,793.36 702.93,793.36 C702.93,793.36 703.34,785.07 699.62,778.85 L699.62,776.78 L699.62,776.78 L699.62,761.47 C700.674644,758.697477 701.966082,756.020923 703.48,753.47 C706.24,748.65 703.48,731.01 703.48,731.01 C703.48,731.01 693.26,706.14 695.75,690.37 C698.24,674.6 674.75,620.32 674.75,620.32 C674.894401,615.082776 675.635863,609.879125 676.96,604.81 C677.203808,603.744784 677.304695,602.651847 677.26,601.56 C677.26,601.43 677.26,601.3 677.26,601.16 L677.26,601.29 C676.91,590.89 668.69,571.39 668.69,571.39 L669.79,534.22 C669.79,534.22 675.04,512.3 666.48,482.89 C663.48,472.62 661.57,464.41 660.36,458.07 C660.22,457.35 660.09,456.66 659.97,456 C677.6,453.31 691.06,451.07 691.06,451.07 C691.06,451.07 680.83,408.27 673.93,400.79 C667.03,393.31 661.5,369.79 661.5,369.79 C661.5,369.79 657.9,339.58 663.71,330.79 C669.52,322 670.33,306.72 670.33,306.72 C670.33,306.72 683.59,297.1 685.25,292.82 C686.91,288.54 689.67,278.92 689.67,273.82 C689.67,268.72 688.01,264.19 688.57,261.52 C689.13,258.85 684.7,248.69 686.91,243.87 C687.48417,242.390035 687.782424,240.817423 687.79,239.23 C687.795556,239.183499 687.795556,239.136501 687.79,239.09 C687.79,239.09 687.79,239.09 687.79,239.04 C687.804724,234.828765 687.412907,230.625942 686.62,226.49 C686.62,226.49 680.62,221.2 673.51,219.49 L673.22,218.34 L672.47,215.34 C672.047741,215.056532 671.610433,214.79615 671.16,214.56 L671.16,213.47 L671.04,209.13 L673.12,199.36 C677.19,182.36 654.54,179.85 654.54,179.85 C653.182264,177.231287 650.896652,175.213102 648.13,174.19 C643.57,172.58 647.37,199.73 649.5,201.46 C651.11,202.77 656.06,211.28 658.44,215.46 L658.44,215.46 L658.83,216.15 C658.468463,216.486413 658.134088,216.850882 657.83,217.24 L658.69,223.13 L658.82,224.03 C657.321363,225.899028 656.105076,227.977835 655.21,230.2 C655.21,230.2 659.36,234.74 658.53,239.82 C657.7,244.9 659.8,251.23 659.9,251.58 C659.65,251.3 656.74,248.14 653.83,248.91 C650.92,249.68 642.83,252.12 642.83,252.12 C642.83,252.12 636.75,253.19 637.31,254.53 C637.87,255.87 633.16,261.75 633.16,261.75 L616.83,246.27 C616.67,245.81 616.51,245.35 616.36,244.87 C615.679215,242.658466 615.203868,240.388852 614.94,238.09 C616.7184,237.665593 618.463121,237.110758 620.16,236.43 C621.877335,235.844554 623.427933,234.853131 624.68,233.54 C626.32,231.54 626.68,228.93 627.31,226.54 C628.6,221.78 631.38,217.54 633.37,213.03 C636.731352,205.411469 637.861804,196.995494 636.63,188.76 C636.372414,186.22683 635.51173,183.792226 634.12,181.66 C631.46,177.99 626.62,176.5 623.12,173.57 C619.62,170.64 617.34,166.18 613.24,163.98 C609.54,161.98 605.02,162.23 600.85,162.91 C592.677606,164.255455 584.827162,167.110778 577.7,171.33 C575.32,172.74 572.7,174.33 569.96,173.87 C567.62,173.45 565.9,171.57 564.39,169.78 C564.4087,169.701999 564.432076,169.625194 564.46,169.55 L564.28,169.34 C562.550572,173.178796 561.683562,177.350001 561.74,181.56 C561.74,182.21 561.74,182.86 561.82,183.56 C561.82,183.79 561.82,184.02 561.82,184.25 C561.834788,184.436374 561.834788,184.623626 561.82,184.81 L561.82,184.81 C561.820151,185.10085 561.779763,185.390301 561.7,185.67 C561.352729,186.50696 560.831155,187.260344 560.17,187.88 C559.671281,188.440609 559.226013,189.046574 558.84,189.69 C558.91,189.47 558.98,189.25 559.06,189.03 C558.018037,190.547117 557.431651,192.330563 557.37,194.17 C557.280814,195.513632 557.722471,196.838606 558.6,197.86 C559.413985,198.659241 560.304984,199.37606 561.26,200 C558.953666,212.848871 564.901006,225.773359 576.16,232.38 C576.35,232.84 576.53,233.31 576.72,233.78 C578.8,239.28 580.37,245.68 579.72,251.59 C579.66,252.03 579.6,252.46 579.52,252.89 C579.31,253.11 579.11,253.34 578.93,253.57 L578.93,253.57 C578.93,253.57 551.93,253.83 545.62,248.08 C539.31,242.33 529.62,262.08 529.62,262.08 C529.62,262.08 519.95,263.96 518.02,262.08 C516.09,260.2 504.76,261.82 504.76,261.82 C504.76,261.82 497.85,255.13 487.91,255.67 C484.134453,252.800651 479.969243,250.484027 475.54,248.79 L475.54,248.79 L475.23,248.68 L475.23,248.68 C473.285074,247.977448 471.208662,247.714481 469.15,247.91 C469.15,247.91 455.89,236.91 452.03,231.07 C448.17,225.23 429.74,203.37 429.66,203.27 L429.59,202.27 L429.38,199.09 C428.83405,199.176016 428.282638,199.222802 427.73,199.23 L427.36,198.13 C426.30211,195.027671 424.99103,192.017539 423.44,189.13 C423.44,189.13 423.44,185.13 424.61,184.13 C425.78,183.13 424.13,168.42 424.13,168.42 C424.13,168.42 412.18,140.48 401.48,161.34 C401.48,161.34 381.25,174.83 398.23,190.54 C398.23,190.54 405,193.83 405.96,196.43 C406.59,198.12 408.89,202.83 410.44,205.97 C410.7,206.49 410.93,206.97 411.13,207.37 L410.94,207.53 L411.19,210.15 L411.29,211.15 C408.09,212.97 405.92,214.76 406.45,216.15 C407.39518,218.465665 408.04366,220.891584 408.38,223.37 C408.38,223.37 431.86,252.78 434.9,265.37 C434.9,265.37 497.9,302.8 518.6,305.48 L515.01,324.19 C515.01,324.19 513.9,335.42 514.18,339.43 C514.46,343.44 511.69,361.63 511.69,361.63 C511.69,361.63 508.1,388.36 505.06,392.1 C502.02,395.84 502.58,411.89 502.58,411.89 C501.848495,419.571302 500.460083,427.17579 498.43,434.62 C495.43,444.78 497.61,457.34 497.61,457.34 C497.61,457.34 487.11,481.41 512.25,465.1 C512.25,465.1 524.59,464.33 538.8,463.85 C538.8,464.31 538.8,464.78 538.8,465.26 C538.8,467.09 538.74,469.07 538.72,471.16 C538.53,484.94 538.45,503.93 539.07,518.3 C540.17,543.7 547.91,593.97 547.91,593.97 L547.91,619.22 C547.410625,621.593862 547.165907,624.014222 547.18,626.44 C547.009785,635.341587 549.371423,644.108432 553.99,651.72 L555.7,668.39 C555.7,668.39 560.24,679.49 560.33,686.12 C560.308409,686.66131 560.241509,687.19986 560.13,687.73 C559.960777,688.579118 559.886985,689.44449 559.91,690.31 C559.65,697.96 564.26,716.25 564.26,716.25 C564.26,716.25 564.54,734.7 567.26,735.77 C569.62,736.68 564.11,746.4 562.46,749.19 C562.46,749.01 562.39,748.84 562.36,748.66 C562.15,749.02 562.02,749.22 562.02,749.22 C561.452219,750.708078 561.160778,752.287282 561.16,753.88 C560.840558,756.452826 562.031864,758.979484 564.22,760.37 C569.47,763.58 572.29,766.25 567.84,767.37 C566.20066,767.619978 564.575198,767.953749 562.97,768.37 C562.89,768.16 562.81,767.95 562.74,767.75 C561.461035,768.278103 560.709174,769.612449 560.92,770.98 C560.8,772.33 561.25,774.3 562.57,777.24 C566.99,787.13 570.05,790.88 570.05,790.88 L572.17,790.64 C571.846876,791.443757 571.434277,792.208575 570.94,792.92 C570.132795,794.079997 569.059532,795.029818 567.81,795.69 C566.659694,796.383902 565.374274,796.82374 564.04,796.98 C561.007578,797.081268 558.16104,798.466365 556.21,800.79 C553.46,804.35 551.73,809.21 557.21,813.47 L576.97,820.29 C576.97,820.29 610.97,824.7 609.14,817.08 C607.31,809.46 606.25,802.78 606.25,802.78 C606.25,802.78 606.63,795.34 603.49,789.26 C603.138665,788.565317 602.737622,787.896912 602.29,787.26 L603.49,787.12 C603.49,787.12 605.97,770.28 609.29,767.12 C610.05,766.38 610.22,765.81 610.04,765.38 C610.39,764.46 609.52,763.92 608.41,763.62 L608.17,764.28 C607.08567,764.043395 605.979804,763.919404 604.87,763.91 C604.87,763.91 603.76,755.09 607.35,751.91 C607.941062,751.173797 608.195121,750.222893 608.05,749.29 C608.080295,748.08245 607.955952,746.875987 607.68,745.7 C607.68,745.76 607.6,745.84 607.55,745.9 C605.74,737.9 599.62,725.17 599.62,725.17 C599.62,725.17 599.34,717.17 601.55,713.95 C603.76,710.73 601.28,670.36 601.28,670.36 C601.28,670.36 602.11,650.85 599.62,641.76 C597.13,632.67 602.62,621.97 602.62,621.97 C602.62,621.97 602.62,621.76 602.56,621.39 L602.63,621.25 C602.63,621.25 602.51,620.05 602.31,618.18 C602.282368,618.238238 602.258973,618.298394 602.24,618.36 C601.69,613.2 600.63,603.84 599.86,599.51 C598.75,593.36 600.13,563.95 600.13,563.95 L605.13,551.39 L613.97,573.04 L623.37,601.92 C623.37,601.92 628.02,608.02 628.13,614.2 C628.13,614.5 628.13,614.8 628.07,615.1 C627.9949,615.740566 627.958168,616.385049 627.96,617.03 C627.794506,620.676899 628.796379,624.281543 630.82,627.32 C630.82,627.32 633.31,640.95 637.18,644.43 C641.05,647.91 641.04,654.59 641.04,654.59 C641.04,654.59 645.74,674.37 647.95,677.85 C649.81,680.78 649.95,688.85 649.89,691.3 L649.89,691.3 C649.89,691.76 649.89,692.02 649.89,692.02 C649.89,692.02 650.54,699.09 650.52,705.02 C650.52,705.75 650.52,706.46 650.45,707.13 L650.45,706.98 C650.443338,708.59978 650.252104,710.213525 649.88,711.79 C649.847407,711.878137 649.820682,711.968334 649.8,712.06 C649.8,711.73 649.8,711.39 649.88,711.06 C648.917151,715.098039 648.453684,719.239013 648.5,723.39 C648.37,730.5 649.5,738.93 653.76,743.87 C661.22,752.43 665.92,751.36 665.92,751.36 C665.92,751.36 662.32,762.05 657.92,764.19 C657.753999,764.274563 657.596595,764.375034 657.45,764.49 C657.45,764.28 657.37,764.08 657.34,763.87 C656.42,764.67 656.05,766.11 656.05,767.87 C655.73,772.57 658.69,780.21 661.52,783.72 C662.564148,784.74365 663.845665,785.492633 665.25,785.9 C665.024016,786.054967 664.790388,786.198481 664.55,786.33 C664.05884,786.598537 663.551156,786.835679 663.03,787.04 C662.31647,787.355988 661.556775,787.555197 660.78,787.63 C657.745084,787.699098 654.886065,789.068514 652.93,791.39 C650.18,794.94 648.45,799.8 653.93,804.06 L673.69,810.88 C673.69,810.88 707.63,815.28 705.82,807.66 Z" id="Path" fill="url(#linearGradient-7)" fill-rule="nonzero"></path>
            <path d="M576.06,820.29 L556.94,813.47 C551.66,809.21 553.34,804.35 556.01,800.79 C557.862206,798.483284 560.62386,797.093336 563.58,796.98 C564.876282,796.821747 566.122154,796.381425 567.23,795.69 C568.436267,795.018674 569.46479,794.069005 570.23,792.92 C571.628661,790.70683 572.383513,788.147952 572.41,785.53 C572.41,785.53 593.41,779.38 599.15,785.53 C600.175345,786.641774 601.03121,787.898615 601.69,789.26 C604.69,795.34 604.37,802.78 604.37,802.78 C604.37,802.78 605.44,809.45 607.17,817.08 C608.9,824.71 576.06,820.29 576.06,820.29 Z" id="Path" fill="#2D293D" fill-rule="nonzero"></path>
            <path d="M669.63,810.87 L650.51,804.05 C645.24,799.79 646.92,794.93 649.58,791.38 C651.427924,789.067998 654.192166,787.676748 657.15,787.57 C657.90768,787.496209 658.647793,787.296818 659.34,786.98 C659.844542,786.774705 660.335531,786.53756 660.81,786.27 C666.16,783.33 666.02,776.11 666.02,776.11 C666.02,776.11 687.02,769.96 692.76,776.11 C693.528249,776.941036 694.199249,777.856951 694.76,778.84 C698.36,785.06 697.96,793.36 697.96,793.36 C697.96,793.36 699.03,800.04 700.77,807.66 C702.51,815.28 669.63,810.87 669.63,810.87 Z" id="Path" fill="#2D293D" fill-rule="nonzero"></path>
            <path d="M599.18,785.53 C600.205345,786.641774 601.06121,787.898615 601.72,789.26 L601.72,789.26 L570.26,792.91 C571.658661,790.69683 572.413513,788.137952 572.44,785.52 C572.44,785.52 593.44,779.39 599.18,785.53 Z" id="Path" fill="#000000" fill-rule="nonzero" opacity="0.1"></path>
            <path d="M694.77,778.84 L694.77,784.73 C689.88,792.79 666.21,791.03 659.34,786.98 C659.844542,786.774705 660.335531,786.53756 660.81,786.27 C666.16,783.33 666.02,776.11 666.02,776.11 C666.02,776.11 687.02,769.96 692.76,776.11 C693.531747,776.940511 694.206116,777.856446 694.77,778.84 L694.77,778.84 Z" id="Path" fill="#000000" fill-rule="nonzero" opacity="0.1"></path>
            <path d="M698.51,753.45 C697.042952,756.00798 695.791944,758.683934 694.77,761.45 L694.77,782.59 C689.42,791.41 661.61,788.47 657.87,783.66 C654.13,778.85 650.12,766.28 654.39,764.14 C658.66,762 662.13,751.31 662.13,751.31 C662.13,751.31 657.58,752.38 650.36,743.82 C643.14,735.26 645.28,716.28 646.63,711.74 C647.98,707.2 646.63,691.95 646.63,691.95 C646.63,691.95 646.9,681.26 644.76,677.78 C642.62,674.3 638.13,654.52 638.13,654.52 C638.13,654.52 638.13,647.84 634.38,644.36 C630.63,640.88 628.23,627.25 628.23,627.25 C626.041716,623.842459 625.098464,619.783296 625.56,615.76 C626.36,609.07 621.01,601.85 621.01,601.85 L611.92,572.98 L603.37,551.32 L598.56,563.89 C598.56,563.89 597.22,593.3 598.29,599.45 C599.36,605.6 600.96,621.91 600.96,621.91 C600.96,621.91 595.62,632.6 598.02,641.69 C600.42,650.78 599.63,670.3 599.63,670.3 C599.63,670.3 602.03,710.67 599.89,713.88 C597.75,717.09 598.02,725.11 598.02,725.11 C598.02,725.11 609.02,748.63 605.51,751.84 C602,755.05 603.1,763.84 603.1,763.84 C603.1,763.84 610.59,763.84 607.38,767.05 C604.17,770.26 601.76,787.05 601.76,787.05 L569.44,790.8 C569.44,790.8 566.44,787.05 562.2,777.16 C557.96,767.27 563,768.34 567.3,767.27 C571.6,766.2 568.88,763.53 563.8,760.27 C558.72,757.01 561.66,749.84 561.66,749.84 C561.66,749.84 569.41,736.74 566.74,735.67 C564.07,734.6 563.8,716.15 563.8,716.15 C563.8,716.15 558.45,694.23 559.8,688.35 C561.15,682.47 555.47,668.39 555.47,668.39 L553.6,651.54 C543.97,634.97 547.72,619.73 547.72,619.73 L547.72,593.83 C547.72,593.83 540.23,543.57 539.16,518.17 C538.48,501.9 538.67,479.7 538.89,465.85 C539.02,458.08 539.16,452.93 539.16,452.93 L654.66,440.93 C654.66,440.93 654.54,446.26 656.76,458.09 C657.93,464.43 659.76,472.64 662.68,482.91 C670.97,512.32 665.89,534.24 665.89,534.24 L664.82,571.39 C664.82,571.39 674.98,596.26 672.82,604.81 C671.537783,609.885438 670.820098,615.086977 670.68,620.32 C670.68,620.32 693.43,674.58 691.02,690.39 C688.61,706.2 698.51,731.03 698.51,731.03 C698.51,731.03 701.18,748.63 698.51,753.45 Z" id="Path" fill="#575988" fill-rule="nonzero"></path>
            <path d="M632.47,614.15 L667.63,609.47 C667.63,609.47 647.71,629.79 632.47,614.15 Z" id="Path" fill="#000000" fill-rule="nonzero" opacity="0.05"></path>
            <path d="M662.55,575.12 C662.55,575.12 663.75,587.55 656.13,592.23 C656.13,592.23 669.77,590.09 662.55,575.12 Z" id="Path" fill="#000000" fill-rule="nonzero" opacity="0.1"></path>
            <path d="M660.39,535.55 C660.39,535.55 631,559.74 620.31,557.74 C609.62,555.74 660.39,535.55 660.39,535.55 Z" id="Path" fill="#000000" fill-rule="nonzero" opacity="0.1"></path>
            <path d="M588.89,625.52 C588.89,625.52 566.57,630.59 565.89,639.52 C565.21,648.45 588.89,625.52 588.89,625.52 Z" id="Path" fill="#000000" fill-rule="nonzero" opacity="0.1"></path>
            <path d="M593.8,737 C593.8,737 562.25,742.89 571.21,746.9 C580.17,750.91 594.87,754.11 594.87,754.11 C594.87,754.11 605.03,754.65 593.8,737 Z" id="Path" fill="#000000" fill-rule="nonzero" opacity="0.05"></path>
            <g id="Group" opacity="0.05" transform="translate(538.000000, 452.000000)" fill="#000000" fill-rule="nonzero">
                <path d="M26.84,301.26 C25.2302937,300.256957 24.1661932,298.57428 23.95,296.69 L23.63,297.25 C23.63,297.25 20.69,304.47 25.77,307.68 L27.42,308.76 C28.35,308.59 29.36,308.46 30.34,308.21 C34.64,307.14 31.92,304.47 26.84,301.26 Z" id="Path"></path>
                <path d="M67.48,299.12 C68.34,298.32 68.31,296.27 67.78,293.63 C66.36,295.7 66.02,298.92 65.99,301.37 C66.3202761,300.522194 66.8283425,299.75498 67.48,299.12 L67.48,299.12 Z" id="Path"></path>
                <path d="M62.62,166.11 C61.4514628,169.270254 60.7344034,172.579501 60.49,175.94 C61.0923137,173.619222 61.9091646,171.359491 62.93,169.19 C62.93,169.19 62.81,167.98 62.62,166.11 Z" id="Path"></path>
                <path d="M134.85,152.07 C135.068928,151.112711 135.166363,150.13165 135.14,149.15 C134.75,151.15 134.47,153 134.27,154.62 C134.44,153.79 134.63,152.94 134.85,152.07 Z" id="Path"></path>
                <path d="M61.86,261.16 C62.3,260.5 62.54,258.3 62.66,255.22 C61.66,257.17 61.25,260.32 61.12,262.72 C61.3039981,262.172522 61.5524066,261.64885 61.86,261.16 Z" id="Path"></path>
                <path d="M68.49,311.58 C66.29,317.58 64.8,328 64.8,328 L32.47,331.74 C32.47,331.74 29.47,328 25.23,318.11 C24.86,317.24 24.56,316.46 24.32,315.75 C22.38,316.64 21.62,318.65 24.16,324.52 C28.44,334.41 31.4,338.16 31.4,338.16 L63.73,334.39 C63.73,334.39 66.14,317.55 69.35,314.39 C70.93,312.79 69.92,311.98 68.49,311.58 Z" id="Path"></path>
                <path d="M25.77,263.56 C25.77,263.56 26.04,282.01 28.71,283.08 L28.71,283.08 C30.06,280.03 30.96,277.08 29.71,276.65 C27.04,275.59 26.77,257.14 26.77,257.14 C26.77,257.14 21.42,235.21 22.77,229.33 C24.12,223.45 18.49,209.28 18.49,209.28 L16.62,192.44 C6.99,175.86 10.74,160.62 10.74,160.62 L10.74,134.7 C10.74,134.7 3.25,84.43 2.18,59.03 C1.5,42.77 1.69,20.57 1.91,6.72 C1.91,4.21 2,1.99 2.04,0.12 L1.11,0.21 C1.11,0.21 0.97,5.36 0.84,13.13 C0.62,26.98 0.43,49.13 1.11,65.45 C2.18,90.85 9.67,141.11 9.67,141.11 L9.67,167.05 C9.67,167.05 5.92,182.29 15.55,198.86 L17.42,215.71 C17.42,215.71 23.03,229.88 21.7,235.71 C20.37,241.54 25.77,263.56 25.77,263.56 Z" id="Path"></path>
                <path d="M120.95,324.52 C118.322772,320.718669 116.573882,316.380601 115.83,311.82 C112.53,314.82 116.32,326.37 119.83,330.94 C123.57,335.75 151.38,338.69 156.73,329.87 L156.73,324.78 C149.55,331.95 124.49,329.07 120.95,324.52 Z" id="Path"></path>
                <path d="M161.59,294.31 C160.117644,296.86667 158.863211,299.542793 157.84,302.31 L157.84,306.06 C158.45,304.69 159.32,302.86 160.52,300.71 C161.29,299.32 161.61,296.87 161.69,294.08 C161.65,294.17 161.62,294.25 161.59,294.31 Z" id="Path"></path>
                <path d="M122.59,298.52 C123.612619,296.465485 124.494645,294.343945 125.23,292.17 C125.23,292.17 120.68,293.24 113.46,284.69 C108.21,278.46 107.91,266.69 108.66,259.02 C107.31,263.57 105.18,282.55 112.39,291.1 C117.13,296.7 120.68,298.17 122.59,298.52 Z" id="Path"></path>
                <path d="M108.65,239.23 C109.120791,244.499396 109.297731,249.790924 109.18,255.08 C109.317042,254.243743 109.500661,253.415788 109.73,252.6 C111.08,248.06 109.73,232.82 109.73,232.82 C109.73,232.82 110,222.12 107.86,218.65 C105.72,215.18 101.13,195.39 101.13,195.39 C101.13,195.39 101.13,188.7 97.39,185.23 C93.65,181.76 91.24,168.12 91.24,168.12 C89.0525203,164.708399 88.109432,160.646408 88.57,156.62 C89.37,149.94 84.02,142.72 84.02,142.72 L74.93,113.84 L66.38,92.19 L61.56,104.75 C61.56,104.75 61.49,106.33 61.4,108.81 L65.31,98.6 L73.86,120.26 L82.95,149.13 C82.95,149.13 88.3,156.35 87.5,163.04 C87.0384638,167.063296 87.9817157,171.122459 90.17,174.53 C90.17,174.53 92.58,188.17 96.32,191.64 C100.06,195.11 100.13,201.8 100.13,201.8 C100.13,201.8 104.68,221.59 106.82,225.06 C108.96,228.53 108.65,239.23 108.65,239.23 Z" id="Path"></path>
            </g>
            <path d="M669.13,199.39 L667.13,209.15 L667.25,213.49 L667.33,216.7 L656.13,217.8 L654.88,215.49 L654.88,215.49 C652.57,211.31 647.78,202.8 646.22,201.49 C644.16,199.75 640.48,172.61 644.9,174.22 C647.593074,175.262043 649.80517,177.263972 651.11,179.84 C651.11,179.84 673.05,182.39 669.13,199.39 Z" id="Path" fill="#FFCDD3" fill-rule="nonzero"></path>
            <path d="M667.29,216.65 L656.13,217.8 L654.88,215.49 L654.88,215.49 C656.48,213.84 661.05,210.09 667.2,213.49 L667.29,216.65 Z" id="Path" fill="#000000" fill-rule="nonzero" opacity="0.1"></path>
            <path d="M670.13,221.93 L655.4,225.39 L655.09,223.19 L654.26,217.3 C654.26,217.3 660.07,209.54 668.5,215.35 L669.23,218.35 L670.13,221.93 Z" id="Path" fill="#DCE6F2" fill-rule="nonzero"></path>
            <path d="M431.81,200.39 L416.13,208.83 C416.13,208.83 415.53,207.59 414.71,205.83 C413.21,202.7 410.99,197.98 410.38,196.29 C409.45,193.69 402.89,190.41 402.89,190.41 C386.46,174.7 406.04,161.2 406.04,161.2 C416.4,140.35 427.96,168.28 427.96,168.28 C427.96,168.28 429.56,183 428.43,183.99 C427.3,184.98 427.3,188.99 427.3,188.99 C428.799573,191.883656 430.06366,194.893386 431.08,197.99 C431.55,199.49 431.81,200.39 431.81,200.39 Z" id="Path" fill="#FFCDD3" fill-rule="nonzero"></path>
            <path d="M431.81,200.39 L416.13,208.83 C416.13,208.83 415.53,207.59 414.71,205.83 C416.92,203.98 424.78,197.61 427.36,197.9 C428.593973,198.052945 429.840075,198.083093 431.08,197.99 C431.55,199.49 431.81,200.39 431.81,200.39 Z" id="Path" fill="#000000" fill-rule="nonzero" opacity="0.1"></path>
            <path d="M433.42,205.15 L415.77,213.85 L415.42,210.05 L415.13,207.39 C415.13,207.39 425.35,198.63 428.37,198.97 C429.898413,199.19524 431.451587,199.19524 432.98,198.97 L433.18,202.15 L433.42,205.15 Z" id="Path" fill="#DCE6F2" fill-rule="nonzero"></path>
            <path d="M626.32,264.18 C626.32,264.18 549.38,272.86 563.76,268.18 C573.76,264.92 577.76,258.55 578.58,251.49 C579.26,245.58 577.74,239.19 575.72,233.69 C573.902972,228.835777 571.59782,224.178565 568.84,219.79 C568.84,219.79 627.66,187.43 615.84,216.79 C614.027031,221.240117 612.904093,225.940941 612.51,230.73 C612.150064,235.48604 612.661794,240.267829 614.02,244.84 C616.247671,252.30234 620.506256,258.998358 626.32,264.18 L626.32,264.18 Z" id="Path" fill="#FFCDD3" fill-rule="nonzero"></path>
            <path d="M615.89,216.85 C614.077031,221.300117 612.954093,226.000941 612.56,230.79 C607.02,235.44 600.94,235.14 593.14,235.14 C587.14,235.14 580.51,236.59 575.72,233.7 C573.902972,228.845777 571.59782,224.188565 568.84,219.8 C568.84,219.8 627.66,187.44 615.89,216.85 Z" id="Path" fill="#000000" fill-rule="nonzero" opacity="0.1"></path>
            <circle id="Oval" fill="#FFCDD3" fill-rule="nonzero" cx="592.1" cy="205.36" r="31.82"></circle>
            <path d="M626.32,264.18 C626.32,264.18 549.38,272.86 563.76,268.18 C573.76,264.92 577.76,258.55 578.58,251.49 C582.41,247.35 590.11,244.35 595.05,242.76 C599.580148,241.234815 604.472197,241.154446 609.05,242.53 C610.845969,243.065413 612.554027,243.860485 614.12,244.89 C616.328066,252.32289 620.550665,258.999442 626.32,264.18 Z" id="Path" fill="#000000" fill-rule="nonzero" opacity="0.1"></path>
            <path d="M670.13,221.93 L655.4,225.39 L655.09,223.19 C659.24,217.89 664.47,217.25 669.23,218.36 L670.13,221.93 Z" id="Path" fill="#000000" fill-rule="nonzero" opacity="0.1"></path>
            <path d="M433.42,205.15 L415.77,213.85 L415.42,210.05 C421.73,206.33 432.3,202.5 433.22,202.17 L433.42,205.15 Z" id="Path" fill="#000000" fill-rule="nonzero" opacity="0.1"></path>
            <path d="M656.76,458.06 C626.96,462.76 584.55,468.89 577.82,466.84 C572.24,465.14 554.41,465.32 538.89,465.84 C539.02,458.07 539.16,452.92 539.16,452.92 L654.66,440.92 C654.66,440.92 654.54,446.23 656.76,458.06 Z" id="Path" fill="#000000" fill-rule="nonzero" opacity="0.1"></path>
            <path d="M686.48,451.06 C686.48,451.06 588.36,467.91 577.82,464.7 C567.28,461.49 513.23,464.97 513.23,464.97 C488.9,481.27 499.06,457.21 499.06,457.21 C499.06,457.21 496.92,444.65 499.86,434.49 C501.821123,427.037317 503.159067,419.43445 503.86,411.76 C503.86,411.76 503.33,395.76 506.27,391.98 C509.21,388.2 512.68,361.5 512.68,361.5 C512.68,361.5 515.36,343.32 515.09,339.31 C514.82,335.3 515.89,324.07 515.89,324.07 L519.38,305.39 C499.38,302.72 438.38,265.29 438.38,265.29 C435.44,252.72 412.71,223.29 412.71,223.29 C412.379501,220.816847 411.751625,218.39264 410.84,216.07 C409.23,211.79 433.3,203.24 433.3,203.24 C433.3,203.24 451.21,225.16 454.95,231.04 C458.69,236.92 471.53,247.89 471.53,247.89 C473.523222,247.685078 475.536753,247.948754 477.41,248.66 C477.52,248.66 477.61,248.72 477.72,248.75 C477.83,248.78 477.72,248.75 477.72,248.75 C483.72,250.84 489.72,255.62 489.72,255.62 C499.35,255.09 506.03,261.77 506.03,261.77 C506.03,261.77 517.03,260.17 518.86,262.04 C520.69,263.91 530.09,262.04 530.09,262.04 C530.09,262.04 539.45,242.25 545.6,248.04 C551.75,253.83 577.84,253.52 577.84,253.52 C581.32,248.9 589.78,245.59 595.07,243.88 C599.600148,242.354815 604.492197,242.274446 609.07,243.65 C611.043294,244.212119 612.904186,245.112114 614.57,246.31 L630.4,261.81 C630.4,261.81 634.95,255.93 634.4,254.59 C633.85,253.25 639.75,252.19 639.75,252.19 C639.75,252.19 647.5,249.78 650.44,248.98 C653.38,248.18 656.08,251.36 656.32,251.64 C656.22,251.3 654.21,244.83 654.99,239.89 C655.77,234.95 651.78,230.26 651.78,230.26 C661.14,207.26 682.26,226.52 682.26,226.52 C682.26,226.52 684.67,239.09 682.53,243.9 C680.39,248.71 684.67,258.9 684.13,261.54 C683.59,264.18 685.2,268.76 685.2,273.84 C685.2,278.92 682.53,288.55 680.92,292.84 C679.31,297.13 666.43,306.69 666.43,306.69 C666.43,306.69 665.62,321.93 660.01,330.75 C654.4,339.57 657.87,369.75 657.87,369.75 C657.87,369.75 663.22,393.28 669.87,400.75 C676.52,408.22 686.48,451.06 686.48,451.06 Z" id="Path" fill="#656691" fill-rule="nonzero"></path>
            <path d="M543.44,275.14 C543.44,275.14 540.5,266.32 537.83,265.51 C535.167395,264.531241 532.574702,263.37188 530.07,262.04 L531.79,258.75 C531.79,258.75 541.84,261.5 543.44,264.44 C545.04,267.38 543.44,275.14 543.44,275.14 Z" id="Path" fill="#000000" fill-rule="nonzero" opacity="0.1"></path>
            <path d="M489.7,255.62 C489.17,258.3 465.37,260.7 465.37,260.7 L477.37,248.64 L477.37,248.64 L477.67,248.74 C477.67,248.74 477.67,248.74 477.67,248.74 C483.75,250.84 489.7,255.62 489.7,255.62 Z" id="Path" fill="#000000" fill-rule="nonzero" opacity="0.1"></path>
            <circle id="Oval" fill="#575988" fill-rule="nonzero" cx="420.85" cy="218.92" r="2.14"></circle>
            <circle id="Oval" fill="#575988" fill-rule="nonzero" cx="423.59" cy="223.2" r="2.14"></circle>
            <circle id="Oval" fill="#575988" fill-rule="nonzero" cx="426.27" cy="227.15" r="2.14"></circle>
            <circle id="Oval" fill="#575988" fill-rule="nonzero" cx="429.07" cy="231.42" r="2.14"></circle>
            <circle id="Oval" fill="#575988" fill-rule="nonzero" cx="681.09" cy="231.19" r="1.74"></circle>
            <circle id="Oval" fill="#575988" fill-rule="nonzero" cx="681.36" cy="235.13" r="1.74"></circle>
            <circle id="Oval" fill="#575988" fill-rule="nonzero" cx="681.6" cy="239.08" r="1.74"></circle>
            <path d="M543.569285,347.59 C543.33,347.28 603.57,423.39 650.38,379.41 C650.38,379.39 576.46,389.44 543.569285,347.59 Z" id="Path" fill="#000000" fill-rule="nonzero" opacity="0.1"></path>
            <path d="M508.95,387.16 C508.95,387.16 545.01,388.16 548.79,398.52 L548.79,409.31 C546.705445,410.476572 544.164555,410.476572 542.08,409.31 C538.44,407.31 516.64,396.31 508.95,401.6 L508.95,387.16 Z" id="Path" fill="#000000" fill-rule="nonzero" opacity="0.1"></path>
            <path d="M509.62,387.16 C509.62,387.16 544.11,388.1 547.72,397.99 L547.72,408.28 C545.725187,409.39481 543.294813,409.39481 541.3,408.28 C537.83,406.41 516.97,395.85 509.62,400.93 L509.62,387.16 Z" id="Path" fill="#656691" fill-rule="nonzero"></path>
            <path d="M528.64,308.85 C528.64,308.85 532.77,319.47 542.64,332.85 C548.742034,341.037071 556.135254,348.176982 564.53,353.99 C564.53,353.99 529.24,313.81 528.64,308.85 Z" id="Path" fill="#000000" fill-rule="nonzero" opacity="0.1"></path>
            <path d="M516.84,266.94 C516.84,266.94 522.84,292.94 538.36,301.74 L516.84,266.94 Z" id="Path" fill="#000000" fill-rule="nonzero" opacity="0.1"></path>
            <path d="M507.61,269.57 C507.46,269.09 502.27,290.11 527.61,301.74 C527.6,301.74 516.84,298.09 507.61,269.57 Z" id="Path" fill="#000000" fill-rule="nonzero" opacity="0.1"></path>
            <path d="M665.13,252.15 C664.73,252.15 677.63,260.36 681.13,264.150054 C681.13,264.18 672.71,251.61 665.13,252.15 Z" id="Path" fill="#000000" fill-rule="nonzero" opacity="0.1"></path>
            <path d="M583.5,234.2 C583.95,235.84 584.5,237.64 585.98,238.5 C586.915634,238.949728 587.941931,239.178935 588.98,239.17 C598.68,239.77 608.77,240.17 617.75,236.46 C619.421716,235.864873 620.922135,234.869171 622.12,233.56 C623.71,231.61 624.02,228.96 624.66,226.56 C625.92,221.81 628.6,217.56 630.54,213.05 C633.790499,205.404024 634.880075,197.012555 633.69,188.79 C633.440075,186.264115 632.608327,183.830482 631.26,181.68 C628.68,178.01 624,176.52 620.59,173.6 C617.18,170.68 615,166.21 611.03,164.01 C607.45,162.01 603.03,162.26 599.03,162.94 C591.096337,164.292902 583.493709,167.147281 576.63,171.35 C574.33,172.77 571.8,174.4 569.14,173.9 C566.82,173.46 565.14,171.51 563.64,169.68 C561.740218,174.040542 560.920362,178.79502 561.25,183.54 C561.351948,184.235241 561.328238,184.943138 561.18,185.63 C560.851082,186.461477 560.346205,187.21197 559.7,187.83 C557.31,190.61 555.81,195.01 558.18,197.83 C559.18,199.05 560.79,199.72 561.79,200.96 C563.59,203.2 562.98,206.41 562.94,209.27 C562.833045,210.263166 563.081017,211.262138 563.64,212.09 C564.54,213.18 566.18,213.27 567.57,213.03 C568.96,212.79 570.38,212.32 571.75,212.63 C573.243678,213.127451 574.526056,214.113895 575.39,215.43 C579.87,221.08 581.62,227.39 583.5,234.2 Z" id="Path" fill="#2D293D" fill-rule="nonzero"></path>
            <g id="Group" opacity="0.1" transform="translate(556.000000, 169.000000)" fill="#000000" fill-rule="nonzero">
                <path d="M67.19,62.11 C65.9921347,63.4191713 64.4917159,64.4148726 62.82,65.01 C53.82,68.75 43.75,68.32 34.05,67.71 C33.0121963,67.7271377 31.9847896,67.5011082 31.05,67.05 C29.58,66.18 29.05,64.39 28.57,62.75 C26.69,55.89 24.94,49.63 20.46,43.93 C19.5960561,42.6138952 18.3136779,41.6274505 16.82,41.13 C15.45,40.82 14.03,41.29 12.64,41.53 C11.25,41.77 9.64,41.68 8.71,40.59 C8.15101659,39.7621383 7.90304466,38.7631656 8.01,37.77 C8.01,34.91 8.65,31.69 6.86,29.46 C5.86,28.21 4.28,27.55 3.24,26.33 C1.76,24.56 1.8,22.17 2.63,19.94 C0.93,22.64 0.19,26.11 2.18,28.46 C3.18,29.69 4.79,30.35 5.79,31.6 C7.58,33.83 6.98,37.05 6.94,39.91 C6.83304466,40.9031656 7.08101659,41.9021383 7.64,42.73 C8.54,43.82 10.18,43.91 11.57,43.67 C12.96,43.43 14.38,42.96 15.75,43.27 C17.2436779,43.7674505 18.5260561,44.7538952 19.39,46.07 C23.87,51.77 25.62,58.07 27.5,64.89 C27.95,66.52 28.5,68.32 29.98,69.19 C30.9147896,69.6411082 31.9421963,69.8671377 32.98,69.85 C42.68,70.46 52.77,70.85 61.75,67.15 C63.4217159,66.5548726 64.9221347,65.5591713 66.12,64.25 C66.7263526,63.4766761 67.1933351,62.603622 67.5,61.67 C67.4,61.82 67.3,61.97 67.19,62.11 Z" id="Path"></path>
                <path d="M5.28,15.75 C5.72288807,15.2896618 6.06364552,14.7410423 6.28,14.14 C6.42823832,13.4531385 6.45194781,12.745241 6.35,12.05 C6.08647674,8.15272813 6.59276959,4.2417008 7.84,0.54 L7.67,0.33 C5.76945767,4.69031421 4.94956945,9.44497979 5.28,14.19 C5.32994292,14.7088008 5.32994292,15.2311992 5.28,15.75 Z" id="Path"></path>
            </g>
            <path d="M577.82,253.48 C577.82,253.48 617.57,258.75 621.14,252.78" id="Path" fill="#000000" fill-rule="nonzero" opacity="0.1"></path>
            <path d="M655.13,237.04 C655.13,237.04 677.21,237.04 682.07,245.34" id="Path" fill="#000000" fill-rule="nonzero" opacity="0.1"></path>
        </g>
    </g>
</svg>