<?xml version="1.0" encoding="UTF-8"?>
<svg width="948px" height="852px" viewBox="0 0 948 852" version="1.1" xmlns="http://www.w3.org/2000/svg" xmlns:xlink="http://www.w3.org/1999/xlink">
    <title>Untitled</title>
    <defs>
        <linearGradient x1="50.0015107%" y1="99.9996962%" x2="50.0015107%" y2="-0.00127984788%" id="linearGradient-1">
            <stop stop-color="#808080" stop-opacity="0.25" offset="0%"></stop>
            <stop stop-color="#808080" stop-opacity="0.12" offset="54%"></stop>
            <stop stop-color="#808080" stop-opacity="0.1" offset="100%"></stop>
        </linearGradient>
    </defs>
    <g id="Page-1" stroke="none" stroke-width="1" fill="none" fill-rule="evenodd">
        <g id="undraw_businesswoman_pc12">
            <ellipse id="Oval" fill="#1C3ED3" fill-rule="nonzero" opacity="0.1" transform="translate(358.847693, 760.564366) rotate(-82.140000) translate(-358.847693, -760.564366) " cx="358.847693" cy="760.564366" rx="42.38" ry="356.13"></ellipse>
            <path d="M26.35,568.89 C32.76,584.34 41.17,599.15 52.94,610.51 C67.28,624.35 85.09,631.9 104.16,635.51 C109.781513,636.557837 115.456939,637.292304 121.16,637.71 C136.23,638.87 151.66,638.1 166.46,636.49 C202.711131,632.532267 238.463287,624.882579 273.16,613.66 C278.86,611.82 284.526667,609.883333 290.16,607.85 C298.66,604.803333 307.083333,601.533333 315.43,598.04 C349.43,583.83 384.58,565.71 420.75,571.33 C438.28,574.06 454.75,582.33 472.32,584.79 C484.651029,586.410035 497.182348,585.518828 509.16,582.17 C514.95867,580.618855 520.63967,578.657239 526.16,576.3 C538.602124,570.890395 550.440611,564.186835 561.48,556.3 C587.98,537.78 611.76,514.82 639.66,498.78 C670.42,481.09 704.47,472.68 739.16,466.41 C744.813333,465.39 750.48,464.416667 756.16,463.49 C772.21,460.84 788.3,458.39 804.16,455.49 C819.44,452.67 834.99,449.22 848.29,440.74 C857.78,434.74 865.76,426.31 873.08,417.48 C886.58321,401.117876 898.165538,383.261228 907.6,364.26 C908.1,363.26 908.59,362.26 909.07,361.26 C923.76,331.12 933.64,298.26 939.7,264.26 C939.88,263.26 940.05,262.26 940.22,261.26 C945.92,227.93 948,193.47 947.37,159.26 L947.31,156.26 C946.92,139.37 945.87,122.55 944.31,105.97 C943.19,94.31 941.69,82.21 935.65,72.41 C929.61,62.61 919.78,56.31 909.94,51.07 C866.64,28 825.13,21.58 778.55,32.76 C771.07,34.55 763.62,36.48 756.17,38.48 C750.5,40 744.83,41.57 739.17,43.15 C700.04,54.06 661.01,65.67 620.56,69.15 C616.646667,69.49 612.736667,69.75 608.83,69.93 C601.09,70.29 593.35,70.37 585.61,70.17 C565.672082,69.6104112 545.803653,67.5647386 526.17,64.05 C520.49,63.07 514.823333,61.9833333 509.17,60.79 C484.75,55.7 460.58,48.91 436.75,41.41 C431.89,39.8766667 427.036667,38.3166667 422.19,36.73 C411.27,33.16 400.35,29.52 389.41,25.98 C356.75,15.41 323.93,5.72 290.16,1.82 C287.266667,1.49333333 284.373333,1.20333333 281.48,0.95 C278.71,0.71 275.93,0.52 273.16,0.38 C220.71,-2.42 167.66,10.23 121.16,36.12 C115.386667,39.3333333 109.72,42.7466667 104.16,46.36 C96.4466667,51.38 88.97,56.78 81.73,62.56 C66.89,74.41 53,87.9 42.42,104.11 C32.11,119.9 25.42,137.63 21.57,156.27 C21.36,157.27 21.16,158.27 20.98,159.27 C15.33,189.36 17.09,221.63 23.43,251.78 C24.1,254.94 24.81,258.11 25.55,261.27 C25.78,262.27 26.02,263.27 26.26,264.27 C33.1,292.78 41.84,321.21 39.56,350.36 C39.27,354.03 38.81,357.67 38.21,361.27 C38.04,362.27 37.87,363.27 37.68,364.27 C33.22,388.05 23.08,410.61 17,434.16 C5.58721989,478.910573 8.86518775,526.144863 26.35,568.89 L26.35,568.89 Z" id="Path" fill="#1C3ED3" fill-rule="nonzero" opacity="0.1"></path>
            <path d="M104.16,261.27 L25.55,261.27 C25.78,262.27 26.02,263.27 26.26,264.27 L104.16,264.27 L104.16,361.27 L38.21,361.27 C38.04,362.27 37.87,363.27 37.68,364.27 L104.16,364.27 L104.16,635.5 C109.781513,636.547837 115.456939,637.282304 121.16,637.7 L121.16,364.27 L273.16,364.27 L273.16,613.65 C278.86,611.81 284.526667,609.873333 290.16,607.84 L290.16,364.27 L509.16,364.27 L509.16,582.16 C514.95867,580.608855 520.63967,578.647239 526.16,576.29 L526.16,364.29 L739.16,364.29 L739.16,466.41 C744.813333,465.39 750.48,464.416667 756.16,463.49 L756.16,364.27 L907.62,364.27 C908.12,363.27 908.61,362.27 909.09,361.27 L756.16,361.27 L756.16,264.27 L939.75,264.27 C939.93,263.27 940.1,262.27 940.27,261.27 L756.16,261.27 L756.16,159.27 L947.39,159.27 L947.33,156.27 L756.16,156.27 L756.16,38.49 C750.49,40.01 744.82,41.58 739.16,43.16 L739.16,156.27 L531.16,156.27 L530.64,155.7 L608.8,69.93 C601.06,70.29 593.32,70.37 585.58,70.17 L526.16,135.41 L526.16,64.05 C520.48,63.07 514.813333,61.9833333 509.16,60.79 L509.16,132.11 L422.23,36.72 C411.31,33.15 400.39,29.51 389.45,25.97 L507.66,155.7 L507.14,156.27 L290.14,156.27 L290.14,1.82 C287.246667,1.49333333 284.353333,1.20333333 281.46,0.95 C278.69,0.71 275.91,0.52 273.14,0.38 L273.14,156.27 L121.14,156.27 L121.14,36.12 C115.366667,39.3333333 109.7,42.7466667 104.14,46.36 L104.14,156.27 L21.57,156.27 C21.36,157.27 21.16,158.27 20.98,159.27 L104.16,159.27 L104.16,261.27 Z M273.16,159.27 L273.16,261.27 L121.16,261.27 L121.16,159.27 L273.16,159.27 Z M290.16,159.27 L509.16,159.27 L509.16,261.27 L290.16,261.27 L290.16,159.27 Z M739.16,261.27 L526.16,261.27 L526.16,162 L529.16,159.27 L739.16,159.27 L739.16,261.27 Z M526.16,361.27 L526.16,264.27 L739.16,264.27 L739.16,361.27 L526.16,361.27 Z M290.16,361.27 L290.16,264.27 L509.16,264.27 L509.16,361.27 L290.16,361.27 Z M121.16,264.27 L273.16,264.27 L273.16,361.27 L121.16,361.27 L121.16,264.27 Z" id="Shape" fill="#1C3ED3" fill-rule="nonzero" opacity="0.1"></path>
            <path d="M543.94,187.41 C545.222148,186.300183 546.710531,185.454048 548.32,184.92 C551.921621,183.80718 555.703446,183.396408 559.46,183.71 C562.210536,183.85968 564.943551,184.241031 567.63,184.85 L693.27,220.41 C695.64,221.08 697.97,221.87 700.27,222.75 C708.37,219.58 731.27,210.4 733.78,207.12 L743.62,210 L727.2,234.51 L727.2,234.51 C728.043854,234.882612 728.574786,235.732552 728.539503,236.654335 C728.504219,237.576118 727.909869,238.382985 727.04,238.69 C708.11,245.2 679.52,236.57 679.52,236.57 L569.75,205.21 C569.75,205.21 536.58,194.01 543.94,187.41 Z" id="Path" fill="#1C3ED3" fill-rule="nonzero" opacity="0.1"></path>
            <ellipse id="Oval" fill="#1C3ED3" fill-rule="nonzero" opacity="0.1" transform="translate(689.102176, 226.651944) rotate(-71.780000) translate(-689.102176, -226.651944) " cx="689.102176" cy="226.651944" rx="1.6" ry="1"></ellipse>
            <ellipse id="Oval" fill="#1C3ED3" fill-rule="nonzero" opacity="0.1" transform="translate(685.303588, 225.400089) rotate(-71.780000) translate(-685.303588, -225.400089) " cx="685.303588" cy="225.400089" rx="1.6" ry="1"></ellipse>
            <ellipse id="Oval" fill="#1C3ED3" fill-rule="nonzero" opacity="0.1" transform="translate(677.988826, 222.990061) rotate(-71.780000) translate(-677.988826, -222.990061) " cx="677.988826" cy="222.990061" rx="1.6" ry="1"></ellipse>
            <ellipse id="Oval" fill="#1C3ED3" fill-rule="nonzero" opacity="0.1" transform="translate(657.378098, 216.935104) rotate(-71.780000) translate(-657.378098, -216.935104) " cx="657.378098" cy="216.935104" rx="1.6" ry="1"></ellipse>
            <ellipse id="Oval" fill="#1C3ED3" fill-rule="nonzero" opacity="0.1" transform="translate(653.743283, 215.747907) rotate(-71.780000) translate(-653.743283, -215.747907) " cx="653.743283" cy="215.747907" rx="1.6" ry="1"></ellipse>
            <ellipse id="Oval" fill="#1C3ED3" fill-rule="nonzero" opacity="0.1" transform="translate(649.991778, 214.864245) rotate(-71.780000) translate(-649.991778, -214.864245) " cx="649.991778" cy="214.864245" rx="1.6" ry="1"></ellipse>
            <ellipse id="Oval" fill="#1C3ED3" fill-rule="nonzero" opacity="0.1" transform="translate(646.212068, 213.627021) rotate(-71.780000) translate(-646.212068, -213.627021) " cx="646.212068" cy="213.627021" rx="1.6" ry="1"></ellipse>
            <ellipse id="Oval" fill="#1C3ED3" fill-rule="nonzero" opacity="0.1" transform="translate(642.506369, 212.400060) rotate(-71.780000) translate(-642.506369, -212.400060) " cx="642.506369" cy="212.40006" rx="1.6" ry="1"></ellipse>
            <ellipse id="Oval" fill="#1C3ED3" fill-rule="nonzero" opacity="0.1" transform="translate(639.138335, 211.294039) rotate(-71.780000) translate(-639.138335, -211.294039) " cx="639.138335" cy="211.294039" rx="1.6" ry="1"></ellipse>
            <ellipse id="Oval" fill="#1C3ED3" fill-rule="nonzero" opacity="0.1" transform="translate(635.532399, 210.101472) rotate(-71.780000) translate(-635.532399, -210.101472) " cx="635.532399" cy="210.101472" rx="1.6" ry="1"></ellipse>
            <ellipse id="Oval" fill="#1C3ED3" fill-rule="nonzero" opacity="0.1" transform="translate(631.762690, 208.864248) rotate(-71.780000) translate(-631.762690, -208.864248) " cx="631.76269" cy="208.864248" rx="1.6" ry="1"></ellipse>
            <ellipse id="Oval" fill="#1C3ED3" fill-rule="nonzero" opacity="0.1" transform="translate(628.413534, 207.762857) rotate(-71.780000) translate(-628.413534, -207.762857) " cx="628.413534" cy="207.762857" rx="1.6" ry="1"></ellipse>
            <ellipse id="Oval" fill="#1C3ED3" fill-rule="nonzero" opacity="0.1" transform="translate(607.726600, 202.173600) rotate(-71.927678) translate(-607.726600, -202.173600) " cx="607.7266" cy="202.1736" rx="1.59887961" ry="1"></ellipse>
            <ellipse id="Oval" fill="#1C3ED3" fill-rule="nonzero" opacity="0.1" transform="translate(602.355812, 200.508953) rotate(-71.780000) translate(-602.355812, -200.508953) " cx="602.355812" cy="200.508953" rx="1.6" ry="1"></ellipse>
            <ellipse id="Oval" fill="#1C3ED3" fill-rule="nonzero" opacity="0.1" transform="translate(598.675865, 199.296122) rotate(-71.780000) translate(-598.675865, -199.296122) " cx="598.675865" cy="199.296122" rx="1.6" ry="1"></ellipse>
            <ellipse id="Oval" fill="#1C3ED3" fill-rule="nonzero" opacity="0.1" transform="translate(595.111934, 198.128687) rotate(-71.780000) translate(-595.111934, -198.128687) " cx="595.111934" cy="198.128687" rx="1.6" ry="1"></ellipse>
            <ellipse id="Oval" fill="#1C3ED3" fill-rule="nonzero" opacity="0.1" transform="translate(591.602132, 196.973140) rotate(-71.780000) translate(-591.602132, -196.973140) " cx="591.602132" cy="196.97314" rx="1.6" ry="1"></ellipse>
            <ellipse id="Oval" fill="#1C3ED3" fill-rule="nonzero" opacity="0.1" transform="translate(587.639652, 195.655004) rotate(-71.780000) translate(-587.639652, -195.655004) " cx="587.639652" cy="195.655004" rx="1.6" ry="1"></ellipse>
            <ellipse id="Oval" fill="#1C3ED3" fill-rule="nonzero" opacity="0.1" transform="translate(605.881366, 201.668629) rotate(-71.780000) translate(-605.881366, -201.668629) " cx="605.881366" cy="201.668629" rx="1.6" ry="1"></ellipse>
            <ellipse id="Oval" fill="#1C3ED3" fill-rule="nonzero" opacity="0.1" transform="translate(681.356860, 224.096082) rotate(-71.780000) translate(-681.356860, -224.096082) " cx="681.35686" cy="224.096082" rx="1.6" ry="1"></ellipse>
            <rect id="Rectangle" fill="#1C3ED3" fill-rule="nonzero" opacity="0.1" transform="translate(622.605356, 207.711541) rotate(-166.130000) translate(-622.605356, -207.711541) " x="620.835356" y="204.626541" width="3.54" height="6.17"></rect>
            <rect id="Rectangle" fill="#1C3ED3" fill-rule="nonzero" opacity="0.1" transform="translate(582.111316, 196.121668) rotate(-166.130000) translate(-582.111316, -196.121668) " x="580.341316" y="193.036668" width="3.54" height="6.17"></rect>
            <polygon id="Path" fill="#1C3ED3" fill-rule="nonzero" opacity="0.1" points="563.55 185.21 568.12 186.41 565.84 189.85 559.07 188.17"></polygon>
            <path d="M548.32,184.96 L558.19,187.53 L561.95,185.21 L559.46,183.75 C555.703446,183.436408 551.921621,183.84718 548.32,184.96 L548.32,184.96 Z" id="Path" fill="#1C3ED3" fill-rule="nonzero" opacity="0.1"></path>
            <path d="M743.62,209.94 L727.2,234.53 L700.38,222.64 C700.38,222.64 730.75,211.06 733.75,207.06 L743.62,209.94 Z" id="Path" fill="#1C3ED3" fill-rule="nonzero" opacity="0.1"></path>
            <polygon id="Path" fill="#1C3ED3" fill-rule="nonzero" opacity="0.1" points="624.51 213.63 667.84 225.33 670.4 230.45"></polygon>
            <path d="M194.25,89.03 L195.56,89.03 C194.620511,88.4807883 194.01949,87.4966156 193.96,86.41 L193.96,86.41 C193.96,84.35 196.49,82.66 199.58,82.66 L239,82.66 C242.09,82.66 244.62,84.35 244.62,86.41 L244.62,86.41 C244.62,88.48 242.09,90.17 239,90.17 L237.68,90.17 C238.619451,90.7207648 239.223077,91.7030635 239.29,92.79 C239.29,94.55 237.45,96.04 234.98,96.44 L246.33,96.44 C249.42,96.44 251.96,98.13 251.96,100.19 C251.96,102.25 249.42,103.95 246.33,103.95 L206.91,103.95 C203.82,103.95 201.29,102.26 201.29,100.19 C201.29,98.43 203.13,96.95 205.59,96.55 L194.25,96.55 C191.15,96.55 188.62,94.86 188.62,92.79 C188.62,90.72 191.15,89.03 194.25,89.03 Z" id="Path" fill="#1C3ED3" fill-rule="nonzero" opacity="0.1"></path>
            <path d="M621.41,124.8 L622.75,124.8 C621.813103,124.24815 621.21302,123.265515 621.15,122.18 L621.15,122.18 C621.15,120.11 623.68,118.42 626.77,118.42 L666.19,118.42 C669.28,118.42 671.81,120.11 671.81,122.18 L671.81,122.18 C671.81,124.24 669.28,125.93 666.19,125.93 L664.87,125.93 C665.808175,126.482066 666.41134,127.463613 666.48,128.55 C666.48,130.32 664.64,131.8 662.18,132.2 L673.52,132.2 C676.62,132.2 679.15,133.89 679.15,135.96 C679.15,138.03 676.62,139.71 673.52,139.71 L634.08,139.71 C630.98,139.71 628.45,138.02 628.45,135.96 C628.45,134.2 630.29,132.71 632.75,132.31 L621.41,132.31 C618.31,132.31 615.78,130.62 615.78,128.55 C615.78,126.48 618.31,124.8 621.41,124.8 Z" id="Path" fill="#1C3ED3" fill-rule="nonzero" opacity="0.1"></path>
            <path d="M133.75,277.86 L135.07,277.86 C134.129265,277.310547 133.525172,276.327489 133.46,275.24 L133.46,275.24 C133.46,273.17 135.99,271.48 139.08,271.48 L178.5,271.48 C181.59,271.48 184.12,273.17 184.12,275.24 L184.12,275.24 C184.12,277.3 181.59,278.99 178.5,278.99 L177.18,278.99 C178.120735,279.539453 178.724828,280.522511 178.79,281.61 C178.79,283.37 176.95,284.86 174.49,285.26 L185.83,285.26 C188.93,285.26 191.46,286.95 191.46,289.02 C191.46,291.09 188.93,292.77 185.83,292.77 L146.46,292.77 C143.36,292.77 140.83,291.08 140.83,289.02 C140.83,287.25 142.67,285.77 145.14,285.37 L133.75,285.37 C130.66,285.37 128.12,283.68 128.12,281.61 C128.12,279.54 130.75,277.86 133.75,277.86 Z" id="Path" fill="#1C3ED3" fill-rule="nonzero" opacity="0.1"></path>
            <path d="M562.9,296.41 C561.9,290.12 555.62,278.62 555.62,278.62 L546.55,263.22 C546.55,263.22 542.99,259.01 543.32,257.65 C543.65,256.29 539.11,254.04 539.11,254.04 C539.11,254.04 536.52,250.66 536.36,249.04 C536.2,247.42 521.63,235.18 521.63,235.18 C521.63,235.18 516.63,230.99 517.75,216.82 L506.26,216.82 C503.326202,216.89913 500.40194,217.189885 497.51,217.69 L480.75,198.12 C480.75,198.12 467.56,187.19 455.9,180.74 C455.9,180.64 455.9,180.54 455.9,180.44 C455.925817,173.140525 453.686191,166.012854 449.49,160.04 L449.37,159.88 C451.236589,159.407755 452.999627,158.594045 454.57,157.48 C455.605316,156.777227 456.411907,155.786372 456.89,154.63 C458.76,149.83 451.38,147.63 448.01,145.9 C441.18,142.38 435.5,137.14 428.53,133.9 C414.451697,127.374487 398.194749,127.47717 384.2,134.18 C377.39,137.55 371.46,142.39 365.34,146.88 C355.75,153.88 359.44,160.33 351.94,169.55 C344.44,178.77 340.2,191.76 344.89,202.66 C347.65,209.06 353.14,213.97 359.17,217.51 C365.2,221.05 357.84,223.39 364.3,226.07 C365.82,226.71 367.48,227.5 368.1,229.07 C368.483439,230.365648 368.423614,231.752194 367.93,233.01 C366.74,237.26 365.16,241.84 366,246.01 C362,247.88 359.25,248.92 359.25,248.92 C350.95,251.82 349.54,257.69 349.54,257.69 C349.54,257.69 351.05,262.89 347.71,265.47 C344.37,268.05 345.77,275.13 345.77,275.13 C345.77,275.13 341.24,285.33 342.41,286.83 C343.318902,288.124573 344.118336,289.49264 344.8,290.92 C344.8,290.92 341.02,293.92 342.96,298.22 C344.9,302.52 342.96,307.13 342.96,307.13 C342.96,307.13 343.96,309.5 342.21,310.79 C340.46,312.08 342.21,321.9 342.21,321.9 C342.163167,323.225449 341.665803,324.495314 340.8,325.5 C339.34,327.22 340.8,343.97 340.8,343.97 C340.389936,344.806741 339.778253,345.52839 339.02,346.07 C338.02,346.55 335.14,362.34 335.95,363.14 C336.76,363.94 323.75,401.91 323.75,401.91 C323.75,401.91 324.07,408.51 322.29,409.64 C320.51,410.77 320.19,418.34 320.19,418.34 C320.19,418.34 320.99,425.1 317.76,426.39 C314.53,427.68 313.87,450.56 313.87,450.56 C313.87,450.56 309.5,462.32 306.87,464.25 C309.50803,467.491649 312.734579,470.205887 316.38,472.25 L315.98,473.31 C313.79,479.31 310.81,488.61 310.42,496.31 C307.76642,498.865244 305.39912,501.70198 303.36,504.77 C303.36,504.77 304.52,505.77 305.93,506.97 L272.85,547.81 C259.33,528.44 251.99,535.62 251.99,535.62 L246.99,536.99 C246.22,537.17 243.23,537.66 242.99,534.31 C242.904398,533.317867 242.661355,532.345695 242.27,531.43 C241.819455,530.310822 241.097827,529.32116 240.17,528.55 C238.872204,527.4811 237.08757,527.222849 235.54,527.88 C231.34,529.5 176.08,538.88 176.08,538.88 C176.08,538.88 158.83,541.78 142.97,562.72 C133.906792,574.823812 123.837686,586.140684 112.87,596.55 L69.75,647.74 C69.75,647.74 47.99,677.15 58.55,676.62 C55.98,682.93 58.42,689.3 58.42,689.3 L101.14,743.68 C101.124476,747.734317 103.8992,751.267015 107.841762,752.212492 C111.784324,753.157968 115.859482,751.267957 117.68445,747.647568 C119.509417,744.027179 118.604992,739.627058 115.5,737.02 L179.27,707.46 C181.065895,710.334383 184.364641,711.907751 187.728639,711.494426 C191.092636,711.0811 193.912385,708.75597 194.959032,705.532332 C196.00568,702.308693 195.089591,698.770615 192.61,696.46 L216.75,672.23 C216.75,672.23 288.28,597.16 293.75,585.88 C296.86,579.5 291.39,570.74 286.06,564.35 L331.7,505.35 L333.34,506.09 L342.52,496.72 C349.52,491.1 343.59,483.86 343.59,483.86 C341.5,481.97 337.52,482.26 333.02,483.54 C333.44,481.74 333.82,479.99 334.14,478.35 C334.23,477.91 334.32,477.48 334.4,477.05 C337.275571,477.053379 340.143909,476.761854 342.96,476.18 C342.96,476.18 343.96,455.08 346.84,446.7 L355.42,404.01 C355.42,404.01 360.6,385.81 362.54,375.82 C364.48,365.83 373.01,327.49 373.01,327.49 C374.4,323.3 375.01,334.58 375.01,334.58 C375.01,334.58 377.82,337.48 377.17,338.98 C376.52,340.48 377.71,349.08 377.71,349.08 C377.71,349.08 379.22,354.23 378.15,355.31 C377.932717,355.569866 377.76647,355.868432 377.66,356.19 C376.66,358.49 375.33,365.56 375.33,365.56 L371.54,379.61 L370.91,380.12 C368.477523,382.238487 366.605502,384.92458 365.46,387.94 C364.31,390.62 363.65,393.16 362.97,394.78 C362.817485,395.135395 362.622751,395.471142 362.39,395.78 C361.981355,396.324161 361.645204,396.919149 361.39,397.55 C360.514851,399.769238 359.864919,402.070799 359.45,404.42 L359.9,404.71 C359.9,404.8 359.83,404.9 359.79,404.99 L359.6,405.47 L359.6,405.53 C359.19,406.53 358.81,407.58 358.43,408.62 L358.31,408.95 C357.96,409.95 357.62,410.95 357.31,411.9 C357.26,412.07 357.2,412.24 357.15,412.41 C356.84,413.34 356.55,414.27 356.27,415.18 L356.09,415.76 C355.83,416.63 355.57,417.49 355.33,418.33 C355.33,418.43 355.27,418.54 355.24,418.63 C353.185252,425.830743 352.095731,433.272442 352,440.76 C351.77,458.42 351.6,494.07 353.78,498.89 C353.92,499.21 354.07,499.58 354.21,499.99 C356.91,507.9 358.96,531.75 358.96,531.75 C360.401304,532.74084 361.908088,533.632883 363.47,534.42 C363.52,534.87 363.57,535.32 363.63,535.79 C364.78,545.6 366.4,558.87 366.94,560.21 C367.81,562.36 369.75,575.21 369.75,575.21 C369.75,575.21 368.23,581 367.16,586.37 C366.09,591.74 352.05,606.57 352.05,606.57 C334.16,621.41 316.25,673.84 316.25,673.84 C312.68,681.52 308.74,684.36 305.84,685.34 C286.51,684.62 285.61,700.34 285.61,700.34 L273.41,723.75 L276.5,725.94 L277.95,726.94 L290.36,712.55 C290.36,712.55 290.36,728.98 288.09,732.95 C286.55,735.65 286.3,740.6 286.3,743.5 C286.3,744.86 286.36,745.77 286.36,745.77 C286.36,745.77 290.14,753.77 306.75,763.67 C314.21,768.1 318.56,767.35 321.09,765.16 C324.19,762.48 324.56,757.66 324.56,757.66 L317.56,745.77 C317.21,745.92 316.87,746.03 316.56,746.16 C316.56,745.75 316.56,745.33 316.56,744.88 C317,734.38 326.44,712.23 326.44,712.23 C326.44,712.23 335.5,688.38 343.05,681.08 C349.64,674.71 376.1,634.49 382.74,624.34 L382.74,624.68 C382.74,625.17 382.81,625.68 382.86,626.1 C383.86,636.97 386.86,641.77 386.86,641.77 C386.86,641.77 390.31,685.77 390.95,696.97 C391.36,703.97 389.65,708.7 388.31,711.25 L388.24,711.37 C388.17,711.37 381.35,714.95 380.71,721.89 C380.07,728.83 383.94,735.42 383.94,735.42 C383.94,735.42 392.75,757.41 392.43,763.73 L397.61,763.73 L396.75,744.61 L396.83,744.71 C397.77,745.96 407.02,758.37 407.33,764.58 C407.33,764.58 409.67,770.97 409.6,772.72 C409.604963,772.766535 409.604963,772.813465 409.6,772.86 C409.38,774.36 417.8,781.45 430,780.05 C442.2,778.65 444.34,776.94 444.34,776.94 C444.34,776.94 444.48,776.55 444.66,775.94 C445.27,773.64 446.24,768.03 442.19,765.26 C437.12,761.79 426.58,752.06 426.13,751.65 L426.13,751.65 C424.4,737.26 418.89,717.71 418.89,717.71 L418.89,688.23 C418.89,688.23 421.38,620.78 419.66,609.4 C418.592269,602.927069 418.592269,596.322931 419.66,589.85 C419.66,589.85 427.21,568.59 425.66,566.22 C424.11,563.85 428.89,555.48 428.89,555.48 L437.96,530.05 L438.49,528.57 L438.49,528.57 C439.97,528.01 440.94,527.64 441.29,527.57 C444.29,526.93 441.29,522.09 441.29,522.09 C441.29,522.09 450.91,481.18 449.93,473.76 C448.95,466.34 452.2,435.91 452.2,435.91 L453.75,423.29 L453.89,422.16 C454.89,423.4 455.59,424.16 455.59,424.16 C465.94,422.44 474.79,394.16 472.52,392.58 C470.25,391 463.89,370.35 463.89,370.35 C453.75,356.28 462.89,327.07 462.89,327.07 C462.89,327.07 472.17,303.55 472.06,299.68 C471.95,295.81 474.22,295.68 474.22,295.68 L474.22,295.57 C482.74,297.39 512.33,303.68 513.85,303.99 C515.63,304.35 519.19,304.59 522.75,306.04 C526.31,307.49 549.3,303.99 549.3,303.99 C549.3,303.99 563.87,302.67 562.9,296.41 Z M333.9,493.51 L326.44,502.99 L327.55,503.49 L282.18,560.05 C279.76,557.52 277.95,555.93 277.95,555.93 C277.49,555.12 277.03,554.35 276.58,553.59 L310.28,510.59 C310.47204,510.744745 310.679854,510.878819 310.9,510.99 L313.57,507.81 C314.304837,508.459009 315.16147,508.955311 316.09,509.27 C322.42,511.44 327.09,503.19 330.29,493.46 C331.482251,493.21807 332.711934,493.228289 333.9,493.49 L333.9,493.51 Z M435.37,220.62 C435.37,220.51 435.37,220.4 435.37,220.29 C435.37,220.38 435.37,220.49 435.37,220.62 Z M435.37,220.04 C435.373836,220.116619 435.373836,220.193381 435.37,220.27 C435.381665,220.19385 435.388346,220.11702 435.39,220.04 L435.37,220.04 Z M497.5,264.17 C497.5,264.17 496.04,259.66 495.07,259.66 C493.830595,259.392489 492.633071,258.958555 491.51,258.37 C490.743139,258.579347 489.923746,258.460086 489.248378,258.040826 C488.573009,257.621567 488.102603,256.940137 487.95,256.16 C486.95,253.16 480.77,250.8 480.77,250.8 C480.77,250.8 471.71,247.04 470.95,243.92 C470.19,240.8 457.25,237.37 457.25,237.37 C457.25,237.37 458.12,236.09 452.61,234.26 C450.680919,233.455062 448.886722,232.358983 447.29,231.01 C443.082216,227.609471 439.103561,223.934811 435.38,220.01 C435.518221,217.671049 435.91053,215.35408 436.55,213.1 C436.69,212.59 436.84,212.1 437.01,211.6 C439.577033,210.334781 441.964589,208.73411 444.11,206.84 L450.83,216.59 C451.533355,217.608718 452.927532,217.867892 453.95,217.17 L459.31,213.52 C462.169928,214.641588 465.247907,215.096445 468.31,214.85 L480.24,229.24 C480.068566,230.871247 480.242331,232.520312 480.75,234.08 L508.48,266.95 C507.75,266.75 497.52,264.17 497.52,264.17 L497.5,264.17 Z" id="Shape" fill="url(#linearGradient-1)" fill-rule="nonzero"></path>
            <path d="M502.97,217.06 C502.97,217.06 472.44,217.38 477.64,234.29 L489.29,241.05 L500.9,238.69 L506.35,229.06 L502.97,217.06 Z" id="Path" fill="#65617D" fill-rule="nonzero"></path>
            <path d="M502.97,217.06 C502.97,217.06 472.44,217.38 477.64,234.29 L489.29,241.05 L500.9,238.69 L506.35,229.06 L502.97,217.06 Z" id="Path" fill="#000000" fill-rule="nonzero" opacity="0.1"></path>
            <path d="M436.47,187.59 C444.84,218.03 465.25,215.06 465.25,215.06 L478.34,230.91 L480.27,233.37 L484.45,238.69 L502.97,228.17 L499.28,223.83 L477.64,198.41 C477.64,198.41 428.1,157.16 436.47,187.59 Z" id="Path" fill="#FBBEBE" fill-rule="nonzero"></path>
            <rect id="Rectangle" fill="#3A3768" fill-rule="nonzero" transform="translate(433.678670, 196.097723) rotate(145.560000) translate(-433.678670, -196.097723) " x="433.39867" y="193.772723" width="1" height="4.65" rx="0.28"></rect>
            <rect id="Rectangle" fill="#3A3768" fill-rule="nonzero" transform="translate(446.292993, 181.158325) rotate(145.560000) translate(-446.292993, -181.158325) " x="446.132993" y="180.393325" width="1" height="1.53" rx="0.16"></rect>
            <rect id="Rectangle" fill="#3A3768" fill-rule="nonzero" transform="translate(449.914200, 187.520800) rotate(145.195988) translate(-449.914200, -187.520800) " x="449.734443" y="186.192597" width="1" height="2.65640657" rx="0.18"></rect>
            <rect id="Rectangle" fill="#3A3768" fill-rule="nonzero" transform="translate(450.236073, 186.896183) rotate(145.560000) translate(-450.236073, -186.896183) " x="450.066073" y="185.551183" width="1" height="2.69" rx="0.17"></rect>
            <rect id="Rectangle" fill="#3A3768" fill-rule="nonzero" transform="translate(446.048186, 197.497587) rotate(145.560000) translate(-446.048186, -197.497587) " x="436.613186" y="178.317587" width="18.87" height="38.36" rx="2.24"></rect>
            <path d="M431.4,185.49 C431.709666,185.282015 432.129077,185.362327 432.34,185.67 L432.42,185.78 C432.630923,186.087673 433.050334,186.167985 433.36,185.96 L439.97,181.43 C440.274262,181.215924 440.35001,180.797082 440.14,180.49 L440.06,180.38 C439.852015,180.070334 439.932327,179.650923 440.24,179.44 L441.52,178.55 C442.111513,178.149565 442.915306,178.301393 443.32,178.89 L462.42,206.75 C462.819444,207.338383 462.667361,208.139055 462.08,208.54 L450.57,216.41 C449.981617,216.809444 449.180945,216.657361 448.78,216.07 L429.67,188.21 C429.270556,187.621617 429.422639,186.820945 430.01,186.42 L431.4,185.49 Z" id="Path" fill="#1E1F20" fill-rule="nonzero"></path>
            <rect id="Rectangle" fill="#E6E8EC" fill-rule="nonzero" transform="translate(436.415317, 182.565536) rotate(145.560000) translate(-436.415317, -182.565536) " x="435.095317" y="182.295536" width="2.64" height="1" rx="0.27"></rect>
            <circle id="Oval" fill="#E6E8EC" fill-rule="nonzero" cx="434.75" cy="183.7" r="1"></circle>
            <path d="M380.05,624.47 C380.05,625.07 380.14,625.65 380.19,626.23 C381.19,637.09 384.14,641.89 384.14,641.89 C384.14,641.89 387.57,685.89 388.21,697.07 C388.62,704.07 386.91,708.79 385.58,711.34 C385.181659,712.14548 384.698956,712.906408 384.14,713.61 L381.99,718.33 L392.08,738.51 L403.89,758.05 L412.05,768.78 C412.05,768.78 418.05,769.64 419.35,768.78 C420.65,767.92 425.78,768.78 425.78,768.78 L430.51,761.48 L425.21,754.31 L423.21,751.61 C421.49,737.22 416.01,717.68 416.01,717.68 L416.01,688.27 C416.01,688.27 418.49,620.86 416.77,609.47 C415.708408,603.003279 415.708408,596.406721 416.77,589.94 C416.77,589.94 424.28,568.68 422.77,566.32 C421.26,563.96 425.99,555.58 425.99,555.58 L434.99,530.17 L435.51,528.68 L433.51,523.81 L382.85,517.41 C382.85,517.41 383.25,521.41 383.69,527.76 L383.69,527.9 C383.95,531.58 384.21,536.06 384.42,541.06 C385.12,557.88 385.18,580.46 381.99,597.71 C380.238079,606.5153 379.586425,615.504084 380.05,624.47 Z" id="Path" fill="#FBBEBE" fill-rule="nonzero"></path>
            <path d="M380.19,626.23 L382.85,622.14 C387.7937,617.381136 393.266001,613.203935 399.16,609.69 C408.4,604.32 410.54,591.69 410.16,589.94 C409.78,588.19 411.45,571.94 411.45,571.94 L411.45,530.68 L383.74,527.68 C384.84,543.75 386.19,575.19 382.04,597.68 C379.75,609.88 379.56,619.29 380.19,626.23 Z" id="Path" fill="#000000" fill-rule="nonzero" opacity="0.1"></path>
            <path d="M293.75,729.28 L295.9,749.03 L306.41,755.25 C306.41,755.25 316.08,756.33 314.36,747.74 C314.203297,746.818819 314.149633,745.883056 314.2,744.95 C314.63,734.46 324.02,712.32 324.02,712.32 C324.02,712.32 333.02,688.49 340.55,681.18 C347.11,674.82 373.44,634.62 380.05,624.47 L381.56,622.14 C386.508477,617.382451 391.983931,613.205404 397.88,609.69 C407.11,604.32 409.26,591.69 408.88,589.94 C408.5,588.19 410.16,571.94 410.16,571.94 L410.16,530.68 L383.74,527.86 L359.92,525.31 C359.92,525.31 360.45,529.97 361.13,535.9 C362.28,545.7 363.9,558.97 364.43,560.31 C365.3,562.46 367.23,575.31 367.23,575.31 C367.23,575.31 365.72,581.1 364.65,586.47 C363.58,591.84 349.65,606.66 349.65,606.66 C331.83,621.47 314.01,673.85 314.01,673.85 C309.32,683.99 304.01,685.71 301.25,685.85 C300.631461,685.898481 300.009186,685.840988 299.41,685.68 L295.54,692.77 L293.75,729.28 Z" id="Path" fill="#FBBEBE" fill-rule="nonzero"></path>
            <path d="M381.99,718.33 L392.08,738.51 L403.89,758.05 L412.05,768.78 C412.05,768.78 418.05,769.64 419.35,768.78 C420.65,767.92 425.78,768.78 425.78,768.78 L430.51,761.48 L425.21,754.31 C426.6,757.51 427.74,761.5 424.93,761.69 C420.21,762.02 410.44,765.99 404.86,752.57 C399.28,739.15 391.86,733.14 391.86,733.14 L385.95,718.76 L385.57,711.34 C385.171659,712.14548 384.688956,712.906408 384.13,713.61 L381.99,718.33 Z" id="Path" fill="#000000" fill-rule="nonzero" opacity="0.1"></path>
            <path d="M381.24,735.5 C381.24,735.5 390.04,757.4 389.72,763.74 L394.87,763.74 L394.01,744.62 L394.09,744.73 C395.03,745.98 404.23,758.38 404.54,764.59 C404.54,764.59 406.87,770.97 406.8,772.72 C406.805373,772.766512 406.805373,772.813488 406.8,772.86 C406.58,774.36 414.95,781.45 427.09,780.05 C439.23,778.65 441.36,776.94 441.36,776.94 C441.36,776.94 441.5,776.55 441.68,775.94 C442.28,773.64 443.25,768.04 439.22,765.27 C434.17,761.79 423.64,752.03 423.22,751.66 C423.49,752.14 429.54,762.66 424.92,763.01 C420.3,763.36 410.43,767.31 404.85,753.89 C399.27,740.47 391.85,734.46 391.85,734.46 L385.94,720.08 L385.5,711.49 C385.5,711.49 378.64,715.03 378,722.01 C377.36,728.99 381.24,735.5 381.24,735.5 Z" id="Path" fill="#3F3D56" fill-rule="nonzero"></path>
            <path d="M388.65,744.3 C389.26,749.44 390.77,758.9 391.55,763.74 L394.87,763.74 L394.01,744.62 L394.09,744.73 L393.8,743.88 C393.8,743.88 387.75,737.22 388.65,744.3 Z" id="Path" fill="#000000" fill-rule="nonzero" opacity="0.1"></path>
            <path d="M406.75,772.86 C406.53,774.36 414.9,781.45 427.04,780.05 C439.18,778.65 441.31,776.94 441.31,776.94 C441.31,776.94 441.45,776.55 441.63,775.94 C434.07,776.03 413.89,775.94 406.76,772.75 C406.76,772.786894 406.756653,772.823711 406.75,772.86 Z" id="Path" fill="#000000" fill-rule="nonzero" opacity="0.1"></path>
            <path d="M293.75,729.28 L295.9,749.03 L306.41,755.25 C306.41,755.25 316.08,756.33 314.36,747.74 C314.203297,746.818819 314.149633,745.883056 314.2,744.95 C297.97,750.95 296.33,735.07 296.33,735.07 L299.23,691.81 C299.182901,689.664008 299.867023,687.565799 301.17,685.86 C300.551461,685.908481 299.929186,685.850988 299.33,685.69 L295.46,692.78 L293.75,729.28 Z" id="Path" fill="#000000" fill-rule="nonzero" opacity="0.1"></path>
            <path d="M271.31,723.8 L274.38,726 L275.82,727 L288.17,712.62 C288.17,712.62 288.17,729.04 285.91,733.01 C284.38,735.71 284.14,740.66 284.14,743.56 C284.14,744.92 284.19,745.83 284.19,745.83 C284.19,745.83 287.95,753.83 304.48,763.72 C311.9,768.15 316.23,767.39 318.74,765.21 C321.83,762.53 322.19,757.71 322.19,757.71 L315.19,745.83 C298.01,752.83 296.3,736.34 296.3,736.34 L299.2,693.08 C299.41,686.53 303.56,685.37 303.56,685.37 C284.31,684.63 283.42,700.37 283.42,700.37 L271.31,723.8 Z" id="Path" fill="#3F3D56" fill-rule="nonzero"></path>
            <polygon id="Path" fill="#000000" fill-rule="nonzero" opacity="0.1" points="274.39 726 275.82 727.02 288.17 712.64 286.77 708.45"></polygon>
            <path d="M284.14,743.58 C284.14,744.94 284.19,745.85 284.19,745.85 C284.19,745.85 287.95,753.85 304.48,763.74 C311.9,768.17 316.23,767.41 318.74,765.23 C311.21,762.9 293.25,756.28 284.14,743.58 Z" id="Path" fill="#000000" fill-rule="nonzero" opacity="0.1"></path>
            <path d="M313.75,509.32 C323.3,512.61 329.03,491.95 331.75,478.47 C333.01,472.18 333.6,467.47 333.6,467.47 L316.02,467.47 C316.02,467.47 315.02,469.84 313.65,473.47 C309.75,484.13 303.3,505.71 313.75,509.32 Z" id="Path" fill="#FBBEBE" fill-rule="nonzero"></path>
            <path d="M391.43,230.54 L403.43,259.73 L403.43,284.85 C403.43,285.5 433.27,293.85 433.27,293.85 L441,274.53 C441,274.53 443.36,251.77 434.78,232.87 C432.05412,226.698451 431.638846,219.752363 433.61,213.3 C433.75,212.793333 433.9,212.293333 434.06,211.8 C436.129987,205.733176 439.363726,200.128482 443.58,195.3 C443.58,195.3 423.11,188.51 409.05,187.13 C400.2,186.27 393.87,187.55 396.78,194.01 C398.555782,198.103346 399.350246,202.555086 399.1,207.01 C399.1,207.41 399.1,207.82 399.02,208.22 C398.14,220.26 391.43,230.54 391.43,230.54 Z" id="Path" fill="#FBBEBE" fill-rule="nonzero"></path>
            <path d="M396.81,194.03 C398.585782,198.123346 399.380246,202.575086 399.13,207.03 C399.13,207.43 399.13,207.84 399.05,208.24 C399.071765,208.268404 399.098958,208.292199 399.13,208.31 C404.196437,212.82851 410.579614,215.601214 417.34,216.22 C418.27,216.31 419.22,216.350191 420.17,216.350191 C424.827458,216.366276 429.429661,215.341287 433.64,213.35 C433.78,212.843333 433.93,212.343333 434.09,211.85 C436.159987,205.783176 439.393726,200.178482 443.61,195.35 C443.61,195.35 423.14,188.56 409.08,187.18 C400.23,186.29 393.9,187.57 396.81,194.03 Z" id="Path" fill="#000000" fill-rule="nonzero" opacity="0.1"></path>
            <path d="M387.419465,180.71 C387.364488,190.757452 391.629712,200.344189 399.13,207.03 C404.199673,211.541873 410.58168,214.310563 417.34,214.93 C418.27,215.02 419.22,215.060017 420.17,215.060017 C424.997449,215.065093 429.760987,213.956339 434.09,211.82 C445.768286,205.86919 453.06742,193.81632 452.93,180.71 C452.957631,173.4164 450.725331,166.293304 446.54,160.32 C440.570593,151.619282 430.721368,146.390266 420.17,146.32 C402.09,146.35 387.419465,161.73 387.419465,180.71 Z" id="Path" fill="#FBBEBE" fill-rule="nonzero"></path>
            <path d="M432.23,291.72 C432.23,291.72 412.23,273.47 406.68,256.94 C403.141057,246.616717 398.686675,236.630334 393.37,227.1 L394.85,224.01 C394.85,224.01 403.03,245.78 409.04,248.35 C415.05,250.92 429.04,265.74 430.3,276.05 L431.16,244.7 L432.51,224.01 C432.51,224.01 442.75,245.78 443.61,255.87 C444.47,265.96 443.39,284.21 440.17,288.07 C438.180219,290.38364 435.281581,291.716138 432.23,291.72 Z" id="Path" fill="#D5D7DF" fill-rule="nonzero"></path>
            <path d="M390.37,223.41 L390.51,223.28 L390.37,223.41 Z" id="Path" stroke="#00FFFF"></path>
            <path d="M359.87,525.31 C359.87,525.31 360.4,529.97 361.08,535.9 C368.16,539.46 376.23,540.9 384.42,541.020075 C393.074841,541.030179 401.6997,540.00285 410.11,537.96 C418.586214,535.940543 426.91272,533.337675 435.03,530.17 L435.55,528.68 L433.55,523.81 L382.85,517.41 C382.85,517.41 383.25,521.41 383.69,527.76 L383.69,527.9 L359.87,525.31 Z" id="Path" fill="#000000" fill-rule="nonzero" opacity="0.1"></path>
            <path d="M351.29,499.01 C351.43,499.33 351.58,499.71 351.72,500.12 C354.41,508.02 356.44,531.86 356.44,531.86 C384.78,551.51 435.34,528.32 438.33,527.67 C441.32,527.02 438.33,522.2 438.33,522.2 C438.33,522.2 447.9,481.3 446.94,473.89 C445.98,466.48 449.19,436.05 449.19,436.05 L450.75,423.41 L455.04,387.54 L422.19,380.46 C422.19,380.46 382,384.54 369.19,389.31 C368.59388,389.525264 368.009711,389.772284 367.44,390.05 C363.51,391.99 360,398.4 357.17,405.6 C355.44,409.97 353.97,414.6 352.79,418.76 C350.745887,425.95907 349.66316,433.39693 349.57,440.88 C349.29,458.57 349.12,494.19 351.29,499.01 Z" id="Path" fill="#3F3D56" fill-rule="nonzero"></path>
            <path d="M351.29,499.01 C351.43,499.33 351.58,499.71 351.72,500.12 C353.56,487.38 355.3,448.99 354.94,436.43 C354.51,421.43 370.4,389.62 370.4,389.62 L369.14,389.35 C368.54388,389.565264 367.959711,389.812284 367.39,390.09 C361.07,393.21 355.85,407.9 352.75,418.8 C350.70262,425.99864 349.616532,433.436494 349.52,440.92 C349.29,458.57 349.12,494.2 351.29,499.01 Z" id="Path" fill="#000000" fill-rule="nonzero" opacity="0.1"></path>
            <path d="M357.12,405.64 C357.94,406.18 374.56,416.88 402.49,428.81 C431.16,441.04 434.27,391.34 434.27,391.34 C436.759822,395.665923 438.605889,400.331622 439.75,405.19 C441.34,411.54 447.58,419.66 450.75,423.45 L455.04,387.58 L422.19,380.5 C422.19,380.5 382,384.58 369.19,389.35 C368.59388,389.565264 368.009711,389.812284 367.44,390.09 C363.46,392.03 359.95,398.41 357.12,405.64 Z" id="Path" fill="#000000" fill-rule="nonzero" opacity="0.1"></path>
            <path d="M340.55,298.41 C342.48,302.7 340.55,307.32 340.55,307.32 C340.55,307.32 369,331.9 370.4,327.71 C371.8,323.52 372.4,334.8 372.4,334.8 C372.4,334.8 375.2,337.7 374.56,339.2 C373.92,340.7 375.09,349.29 375.09,349.29 C375.09,349.29 376.59,354.44 375.52,355.52 C374.45,356.6 372.84,365.52 372.84,365.52 L369,379.78 L368.33,380.34 C362.33,385.27 361.56,393.86 359.84,396.01 C358.12,398.16 357.06,404.38 357.06,404.38 C357.06,404.38 373.8,415.33 402.46,427.57 C431.12,439.81 434.24,390.1 434.24,390.1 C436.735777,394.408647 438.591857,399.057269 439.75,403.9 C441.9,412.49 452.53,424.3 452.53,424.3 C462.84,422.58 471.63,394.35 469.38,392.74 C467.13,391.13 460.75,370.52 460.75,370.52 C450.66,356.46 459.75,327.25 459.75,327.25 C459.75,327.25 468.98,303.74 468.87,299.88 C468.76,296.02 471.02,295.88 471.02,295.88 L477.57,251.01 C477.57,251.01 468.57,247.25 467.8,244.13 C467.03,241.01 454.16,237.59 454.16,237.59 C454.16,237.59 455.03,236.3 449.55,234.47 C447.626774,233.66987 445.838951,232.576937 444.25,231.23 C440.065515,227.824329 436.107147,224.149895 432.4,220.23 C432.4,220.23 431.85,233.01 434.52,240.4 C437.19,247.79 439.14,269.62 439.35,271.23 C439.56,272.84 431.62,289.69 431.62,289.69 L427.41,283.92 C420.77,274.84 408.54,258.16 407.69,257.38 C406.5,256.31 396.21,227.6 394.78,224.02 C394.25,222.71 393.51,222.29 392.78,222.28 C392.204559,222.295279 391.645663,222.475792 391.17,222.8 L391.17,222.8 C390.919823,222.95409 390.682397,223.12798 390.46,223.32 L390.21,224.01 L390.15,224.15 C389.932219,224.738393 389.678405,225.312813 389.39,225.87 L389.39,225.87 C382.49,239.41 356.75,249.1 356.75,249.1 C348.49,252 347.09,257.87 347.09,257.87 C347.09,257.87 348.59,263.06 345.27,265.64 C341.95,268.22 343.34,275.3 343.34,275.3 C343.34,275.3 338.83,285.5 339.99,287 C340.898588,288.289412 341.694843,289.65442 342.37,291.08 C342.37,291.08 338.62,294.08 340.55,298.41 Z" id="Path" fill="#65617D" fill-rule="nonzero"></path>
            <path d="M423.96,304.28 C423.96,304.28 467.87,311.15 465.83,292.28 C463.97,275.07 447.83,238.87 444.97,232.57 C440.783318,229.163242 436.821692,225.488884 433.11,221.57 C433.11,221.57 432.57,234.35 435.23,241.74 C437.89,249.13 439.85,270.95 440.06,272.56 C440.27,274.17 432.33,291.03 432.33,291.03 L423.96,304.28 Z" id="Path" fill="#000000" fill-rule="nonzero" opacity="0.1"></path>
            <path d="M422.67,303 C422.67,303 466.58,309.86 464.54,291 C462.68,273.79 446.54,237.59 443.68,231.29 C439.495515,227.884329 435.537147,224.209895 431.83,220.29 C431.83,220.29 431.28,233.07 433.94,240.46 C436.6,247.85 438.56,269.68 438.78,271.29 C439,272.9 431.05,289.75 431.05,289.75 L422.67,303 Z" id="Path" fill="#000000" fill-rule="nonzero" opacity="0.1"></path>
            <path d="M423.32,303 C423.32,303 467.22,309.86 465.18,291 C463.33,273.79 447.18,237.59 444.32,231.29 C440.135515,227.884329 436.177147,224.209895 432.47,220.29 C432.47,220.29 431.92,233.07 434.59,240.46 C437.26,247.85 439.21,269.68 439.42,271.29 C439.63,272.9 431.69,289.75 431.69,289.75 L423.32,303 Z" id="Path" fill="#65617D" fill-rule="nonzero"></path>
            <path d="M388.14,227.17 L388.14,227.17 C388.14,227.3 388.21,229.17 388.3,232.05 C388.47,237.61 388.74,247.05 388.88,255.94 C389.04,266.24 389.04,275.72 388.54,277.34 C387.36,281.1 393.15,290.44 393.15,290.44 L422.03,304.28 L429.8,291.93 L426.19,285.2 C419.55,276.12 407.32,259.44 406.47,258.66 C406.09,258.32 404.77,255.14 403.12,250.86 C399.6,241.77 394.53,227.73 393.56,225.3 C393.140111,224.483575 392.424938,223.857798 391.56,223.55 C390.968133,223.441515 390.361689,223.641151 389.95,224.08 L389.95,224.08 C389.552055,224.4746 389.215032,224.926211 388.95,225.42 L388.95,225.47 C388.654173,226.003559 388.406525,226.56244 388.21,227.14 L388.14,227.17 Z" id="Path" fill="#000000" fill-rule="nonzero" opacity="0.1"></path>
            <path d="M390.08,225.88 L390.08,225.88 C390.08,226 390.15,227.88 390.23,230.75 C390.4,236.31 390.67,245.75 390.81,254.64 C390.98,264.94 390.98,274.42 390.47,276.04 C389.29,279.8 395.09,289.14 395.09,289.14 L423.96,302.99 L431.75,290.64 L428.14,283.91 C421.5,274.83 409.28,258.15 408.42,257.37 C408.04,257.03 406.73,253.85 405.07,249.57 C401.55,240.49 396.48,226.44 395.51,224.01 C395.088926,223.196719 394.373721,222.574491 393.51,222.27 C392.919286,222.149159 392.308427,222.346455 391.9,222.79 L391.9,222.79 C391.500094,223.186649 391.162898,223.641863 390.9,224.14 L390.9,224.14 C390.60329,224.676595 390.355619,225.238876 390.16,225.82 L390.08,225.88 Z" id="Path" fill="#000000" fill-rule="nonzero" opacity="0.1"></path>
            <path d="M389.43,225.88 L389.43,225.88 C389.43,226 389.5,227.88 389.59,230.75 C389.76,236.31 390.02,245.75 390.17,254.64 C390.33,264.94 390.33,274.42 389.82,276.04 C388.65,279.8 394.44,289.14 394.44,289.14 L423.32,302.99 L431.08,290.63 C431.08,290.63 429.71,288.05 427.48,283.9 C420.84,274.82 408.61,258.14 407.76,257.36 C407.38,257.02 406.06,253.84 404.41,249.56 C400.89,240.48 395.82,226.43 394.85,224 C394.430549,223.185444 393.71476,222.562707 392.85,222.26 C392.259516,222.143187 391.650598,222.339857 391.24,222.78 L391.24,222.78 C390.836622,223.173631 390.498999,223.629421 390.24,224.13 L390.24,224.13 C389.94329,224.666595 389.695619,225.228876 389.5,225.81 L389.43,225.88 Z" id="Path" fill="#65617D" fill-rule="nonzero"></path>
            <ellipse id="Oval" fill="#000000" fill-rule="nonzero" opacity="0.1" cx="427.29" cy="309.33" rx="2.42" ry="4.19"></ellipse>
            <ellipse id="Oval" fill="#000000" fill-rule="nonzero" cx="427.29" cy="308.68" rx="2.42" ry="4.19"></ellipse>
            <ellipse id="Oval" fill="#000000" fill-rule="nonzero" opacity="0.1" cx="433.5" cy="354.25" rx="2.42" ry="4.19"></ellipse>
            <ellipse id="Oval" fill="#000000" fill-rule="nonzero" opacity="0.1" cx="431.09" cy="330.47" rx="2.42" ry="4.19"></ellipse>
            <ellipse id="Oval" fill="#000000" fill-rule="nonzero" opacity="0.1" cx="435.92" cy="374.22" rx="2.42" ry="4.19"></ellipse>
            <ellipse id="Oval" fill="#000000" fill-rule="nonzero" cx="433.5" cy="353.61" rx="2.42" ry="4.19"></ellipse>
            <ellipse id="Oval" fill="#000000" fill-rule="nonzero" cx="431.09" cy="329.83" rx="2.42" ry="4.19"></ellipse>
            <ellipse id="Oval" fill="#000000" fill-rule="nonzero" cx="435.92" cy="373.58" rx="2.42" ry="4.19"></ellipse>
            <path d="M383.8,256.35 C384.43,255.87 387.35,255.21 390.17,254.65 C392.99,254.09 395.87,253.65 395.87,253.65 C398.286361,251.543925 401.24516,250.158071 404.41,249.65 C400.89,240.57 395.82,226.52 394.85,224.09 C394.430549,223.275444 393.71476,222.652707 392.85,222.35 C392.259516,222.233187 391.650598,222.429857 391.24,222.87 L391.24,222.87 C390.836622,223.263631 390.498999,223.719421 390.24,224.22 L390.24,224.22 L389.65,230.79 L389.49,232.55 C389.49,232.55 384.82,234.8 385.79,238.55 C386.76,242.3 382.51,257.32 383.8,256.35 Z" id="Path" fill="#1C3ED3" fill-rule="nonzero"></path>
            <path d="M432.51,224.66 C432.51,224.66 448.39,247.49 448.22,252 C448.05,256.51 445.65,252 445.65,252 C445.65,252 438.94,232.07 431.11,247.17 L432.51,224.66 Z" id="Path" fill="#000000" fill-rule="nonzero" opacity="0.1"></path>
            <path d="M432.51,224.01 C432.51,224.01 448.39,246.85 448.22,251.36 C448.05,255.87 445.65,251.36 445.65,251.36 C445.65,251.36 438.94,231.43 431.11,246.52 L432.51,224.01 Z" id="Path" fill="#D5D7DF" fill-rule="nonzero"></path>
            <path d="M475.28,253.41 L477.64,251.09 C477.64,251.09 483.81,253.41 484.75,256.41 C485.69,259.41 488.29,258.63 488.29,258.63 C489.40734,259.213303 490.597994,259.643821 491.83,259.91 C492.83,259.91 494.25,264.42 494.25,264.42 C494.25,264.42 504.39,267 505.25,267.16 C506.11,267.32 545.82,304.23 545.82,304.23 C545.82,304.23 522.96,307.74 519.42,306.29 C515.88,304.84 512.33,304.59 510.56,304.23 C508.79,303.87 468.86,295.34 468.86,295.34 L475.28,253.41 Z" id="Path" fill="#65617D" fill-rule="nonzero"></path>
            <path d="M480.27,233.41 L484.45,238.73 L502.97,228.21 L499.28,223.87 C495.98,228.88 490.1,234.27 480.27,233.41 Z" id="Path" fill="#000000" fill-rule="nonzero" opacity="0.1"></path>
            <path d="M539.85,302.24 L545.8,304.24 C545.8,304.24 560.3,302.92 559.33,296.64 C558.36,290.36 552.08,278.86 552.08,278.86 L543.08,263.47 C543.08,263.47 539.53,259.25 539.86,257.9 C540.19,256.55 535.67,254.29 535.67,254.29 C535.67,254.29 533.09,250.91 532.93,249.29 C532.77,247.67 518.27,235.41 518.27,235.41 C518.27,235.41 513.27,231.22 514.4,217.05 L502.97,217.05 C502.97,217.05 497.72,238.15 477.64,234.28 L505.23,267.13 L539.85,302.24 Z" id="Path" fill="#65617D" fill-rule="nonzero"></path>
            <path d="M313.65,473.41 C319.12225,476.660795 325.365043,478.387231 331.73,478.41 C332.99,472.12 333.58,467.41 333.58,467.41 L316.02,467.41 C316.02,467.41 314.98,469.82 313.65,473.41 Z" id="Path" fill="#000000" fill-rule="nonzero" opacity="0.1"></path>
            <path d="M345.65,303 L340.55,307.29 C340.55,307.29 341.55,309.65 339.81,310.94 C338.07,312.23 339.81,322.05 339.81,322.05 C339.762933,323.370594 339.269386,324.636188 338.41,325.64 C336.96,327.36 338.41,344.11 338.41,344.11 C338.002787,344.94289 337.394464,345.661192 336.64,346.2 C335.64,346.68 332.77,362.47 333.58,363.27 C334.39,364.07 321.34,402.08 321.34,402.08 C321.34,402.08 321.66,408.68 319.89,409.81 C318.12,410.94 317.8,418.5 317.8,418.5 C317.8,418.5 318.6,425.26 315.38,426.55 C312.16,427.84 311.52,450.71 311.52,450.71 C311.52,450.71 307.17,462.46 304.59,464.39 C304.59,464.39 316.83,481.14 340.5,476.31 C340.5,476.31 341.5,455.21 344.36,446.84 L352.9,404.17 C352.9,404.17 358.05,385.97 359.98,375.99 C361.91,366.01 370.4,327.68 370.4,327.68 L370.4,314 L345.65,303 Z" id="Path" fill="#65617D" fill-rule="nonzero"></path>
            <ellipse id="Oval" fill="#000000" fill-rule="nonzero" opacity="0.1" cx="320.54" cy="419.79" rx="1.13" ry="2.25"></ellipse>
            <ellipse id="Oval" fill="#000000" fill-rule="nonzero" opacity="0.1" cx="316.03" cy="438.95" rx="1.13" ry="2.25"></ellipse>
            <ellipse id="Oval" fill="#000000" fill-rule="nonzero" opacity="0.1" cx="312.65" cy="456.5" rx="1.13" ry="2.25"></ellipse>
            <ellipse id="Oval" fill="#000000" fill-rule="nonzero" opacity="0.1" cx="318.28" cy="429.45" rx="1.13" ry="2.25"></ellipse>
            <ellipse id="Oval" fill="#000000" fill-rule="nonzero" opacity="0.1" cx="313.77" cy="448.13" rx="1.13" ry="2.25"></ellipse>
            <ellipse id="Oval" fill="#000000" fill-rule="nonzero" cx="320.54" cy="419.15" rx="1.13" ry="2.25"></ellipse>
            <ellipse id="Oval" fill="#000000" fill-rule="nonzero" cx="316.03" cy="438.31" rx="1.13" ry="2.25"></ellipse>
            <ellipse id="Oval" fill="#000000" fill-rule="nonzero" cx="312.65" cy="455.86" rx="1.13" ry="2.25"></ellipse>
            <ellipse id="Oval" fill="#000000" fill-rule="nonzero" cx="318.28" cy="428.81" rx="1.13" ry="2.25"></ellipse>
            <ellipse id="Oval" fill="#000000" fill-rule="nonzero" cx="313.77" cy="447.49" rx="1.13" ry="2.25"></ellipse>
            <path d="M402.19,334.02 C402.19,334.02 384.79,331.02 379.47,334.02 C374.15,337.02 402.19,334.02 402.19,334.02 Z" id="Path" fill="#000000" fill-rule="nonzero" opacity="0.1"></path>
            <path d="M390.49,351.03 C390.49,351.03 381.49,336.38 378.8,341.03 C376.11,345.68 390.49,351.03 390.49,351.03 Z" id="Path" fill="#000000" fill-rule="nonzero" opacity="0.1"></path>
            <path d="M348.39,367.3 C347.91,367.78 328.74,389.68 328.91,391.13 C329.08,392.58 348.39,367.3 348.39,367.3 Z" id="Path" fill="#000000" fill-rule="nonzero" opacity="0.1"></path>
            <path d="M520.36,289.68 C520.2,290.17 515.2,300.15 518.51,301.28 C521.82,302.41 520.36,289.68 520.36,289.68 Z" id="Path" fill="#000000" fill-rule="nonzero" opacity="0.1"></path>
            <path d="M505.39,275.83 C505.39,275.83 497.82,278.57 496.53,279.83 C495.24,281.09 505.39,275.83 505.39,275.83 Z" id="Path" fill="#000000" fill-rule="nonzero" opacity="0.1"></path>
            <path d="M530.99,268.41 C527.45,268.25 514.89,264.86 514.4,265.99 C513.91,267.12 530.99,268.41 530.99,268.41 Z" id="Path" fill="#000000" fill-rule="nonzero" opacity="0.1"></path>
            <path d="M399.13,207.03 C398.6,219.55 391.43,230.54 391.43,230.54 L403.43,259.73 L403.43,268.22 C411.59,269.08 420.19,267.31 426.13,261.76 C421.42,260.22 418.55,255.54 416.36,251.09 C413.805558,245.863802 411.623462,240.463698 409.83,234.93 C408.63,231.22 408.01,226.28 411.31,224.19 C412.82,223.19 414.82,223.19 416.22,222.07 C418.03,220.62 418.15,217.87 417.53,215.64 C417.46,215.4 417.39,215.16 417.31,214.93 C415.85,210.59 412.41,207.16 410.31,203.06 C407.856921,198.117182 407.402099,192.419377 409.04,187.15 C409.57403,185.384132 410.351505,183.701286 411.35,182.15 C415.444141,175.927896 422.475359,172.277873 429.92,172.51 C431.79,172.59 434.08,172.71 435.03,171.11 C435.77,169.89 435.24,168.31 435.48,166.9 C436.19,162.6 441.48,161.65 446.48,160.31 C440.510593,151.609282 430.661368,146.380266 420.11,146.31 C402.03,146.31 387.359536,161.69 387.359536,180.67 C387.308186,190.740809 391.596956,200.345905 399.13,207.03 Z" id="Path" fill="#000000" fill-rule="nonzero" opacity="0.1"></path>
            <path d="M434.23,166.91 C433.99,168.32 434.52,169.91 433.79,171.13 C432.79,172.72 430.54,172.6 428.68,172.52 C421.210922,172.191623 414.130486,175.858987 410.089498,182.149088 C406.048509,188.439189 405.656412,196.403383 409.06,203.06 C411.26,207.38 414.96,210.96 416.27,215.63 C416.89,217.87 416.77,220.63 414.96,222.07 C413.57,223.2 411.56,223.23 410.05,224.19 C406.75,226.28 407.37,231.19 408.57,234.93 C410.362495,240.465496 412.548055,245.865902 415.11,251.09 C417.29,255.54 420.11,260.22 424.87,261.76 C417.99,268.18 407.57,269.56 398.37,267.61 C389.17,265.66 380.86,260.87 372.73,256.13 C369.39,254.19 365.86,252.04 364.23,248.54 C362.01,243.78 363.99,238.25 365.4,233.2 C365.888371,231.94109 365.948121,230.556297 365.57,229.26 C364.94,227.74 363.3,226.95 361.78,226.26 C355.36,223.58 367.78,221.26 361.78,217.7 C355.78,214.14 350.32,209.26 347.58,202.86 C342.91,191.97 347.12,178.98 354.58,169.77 C362.04,160.56 353.3,154.14 362.84,147.11 C368.92,142.62 374.84,137.78 381.6,134.42 C395.515694,127.712662 411.707318,127.606211 425.71,134.13 C432.64,137.38 438.29,142.62 445.09,146.13 C448.44,147.86 455.79,150.05 453.92,154.85 C451.09,162.17 435.49,159.32 434.23,166.91 Z" id="Path" fill="#3F3D56" fill-rule="nonzero"></path>
            <path d="M366.98,432.25 C366.98,432.25 390.98,454.15 385.87,454.15 C380.76,454.15 366.98,432.25 366.98,432.25 Z" id="Path" fill="#000000" fill-rule="nonzero" opacity="0.1"></path>
            <path d="M363.54,440.84 C363.54,440.84 379.43,455.84 374.71,457.15 C369.99,458.46 363.54,440.84 363.54,440.84 Z" id="Path" fill="#000000" fill-rule="nonzero" opacity="0.1"></path>
            <path d="M356.97,404.59 C356.97,404.59 358.29,405.45 360.83,406.97 C365.14,402.65 371.46,395.7 373.51,390.1 C376.73,381.29 375.44,355.75 375.44,355.75 C374.36,356.82 372.75,365.75 372.75,365.75 L368.92,380.01 L368.25,380.57 C362.25,385.5 361.48,394.09 359.76,396.24 C358.04,398.39 356.97,404.59 356.97,404.59 Z" id="Path" fill="#000000" fill-rule="nonzero" opacity="0.1"></path>
            <circle id="Oval" fill="#3F3D56" fill-rule="nonzero" cx="108.62" cy="743.69" r="8.7"></circle>
            <circle id="Oval" fill="#3F3D56" fill-rule="nonzero" cx="184.95" cy="702.77" r="8.7"></circle>
            <path d="M57.54,676.67 C68.04,676.14 93.8,675.5 98.96,672.92 C104.12,670.34 160.15,610.76 160.15,610.76 L176.89,586.29 L204.27,574.7 L227.13,548.59 L245.18,537.05 C245.18,537.05 241.3,538.27 240.98,534.42 C240.898016,533.427266 240.65483,532.454522 240.26,531.54 C239.816789,530.41942 239.097922,529.428828 238.17,528.66 C236.881466,527.595444 235.105872,527.340684 233.57,528 C229.39,529.61 174.41,538.95 174.41,538.95 C174.41,538.95 157.25,541.85 141.47,562.78 C132.44101,574.87557 122.405248,586.185874 111.47,596.59 L68.63,647.8 C68.63,647.8 47.04,677.2 57.54,676.67 Z" id="Path" fill="#90BE6D" fill-rule="nonzero"></path>
            <path d="M57.41,689.34 L99.92,743.69 L101.44,742.98 L182.04,705.41 L214.89,672.24 C214.89,672.24 286.07,597.24 291.54,585.93 C297.01,574.62 275.82,555.98 275.82,555.98 C259.14,526.67 250,535.69 250,535.69 L169.22,557.9 L169.16,557.9 L168.75,558.41 C162.48,565.08 91.46,640.67 68.31,664.34 L68.26,664.4 L68.26,664.4 C64.97,667.77 62.65,670.08 61.65,670.97 C53.23,678.41 57.41,689.34 57.41,689.34 Z" id="Path" fill="#90BE6D" fill-rule="nonzero"></path>
            <path d="M57.41,689.34 L99.92,743.69 L101.44,742.98 C123.93,714.75 179.38,645.69 194.93,631.61 C214.57,613.81 209.75,602.71 209.75,602.71 L193,579.85 C180.37,556.43 170.1,557.77 169.23,557.94 L169.17,557.94 L168.75,558.41 L68.28,664.35 L68.23,664.41 L68.23,664.41 C64.94,667.78 62.62,670.09 61.62,670.98 C53.23,678.41 57.41,689.34 57.41,689.34 Z" id="Path" fill="#000000" fill-rule="nonzero" opacity="0.1"></path>
            <path d="M251.93,555.05 L244.84,548.93 C244.84,548.93 228.75,545.41 215.22,561.17 L220.05,566.97 C220.05,566.97 232.28,552.8 251.93,555.05 Z" id="Path" fill="#3F3D56" fill-rule="nonzero"></path>
            <path d="M251.93,555.05 L244.84,548.93 C244.84,548.93 228.75,545.41 215.22,561.17 L220.05,566.97 C220.05,566.97 232.28,552.8 251.93,555.05 Z" id="Path" fill="#000000" fill-rule="nonzero" opacity="0.1"></path>
            <polygon id="Path" fill="#65617D" fill-rule="nonzero" points="263.85 590.48 332.76 500.98 328.58 499.34 258.37 587.26"></polygon>
            <polygon id="Path" fill="#65617D" fill-rule="nonzero" points="240.02 597.88 309.52 508.68 306.04 504.17 233.57 594.02"></polygon>
            <path d="M308.61,511.04 C307.86,510.8 301.09,504.92 301.09,504.92 L301.09,504.92 C306.213525,497.113589 313.427792,490.904191 321.91,487 C329.38,483.58 337.74,480.91 341.14,484 C341.14,484 347.04,491.23 340.06,496.85 L335.06,495.59 C335.06,495.59 327.54,487.22 315.3,503.1 L308.61,511.04 Z" id="Path" fill="#3F3D56" fill-rule="nonzero"></path>
            <polygon id="Path" fill="#3F3D56" fill-rule="nonzero" points="340.06 496.84 330.94 506.21 324.07 503.09 332.07 492.9 336.31 494.18"></polygon>
            <path d="M128.59,590.47 C129.12,589.93 160.01,558.86 168.95,552.47 C176.77,546.89 227.05,534.68 240.26,531.54 C239.816789,530.41942 239.097922,529.428828 238.17,528.66 C225.57,532.06 184.98,543 172.17,546.25 C157.04,550.08 129.03,589.84 128.59,590.47 Z" id="Path" fill="#000000" fill-rule="nonzero" opacity="0.1"></path>
            <polygon id="Path" fill="#000000" fill-rule="nonzero" opacity="0.1" points="242.92 537.67 169.37 557.13 57.54 676.67 57.54 673.24 167.23 556.49"></polygon>
            <path d="M394.16,266.58 C403.37,268.53 413.79,267.15 420.67,260.73 C415.96,259.18 413.09,254.51 410.9,250.06 C408.341311,244.835697 406.15909,239.435286 404.37,233.9 C403.16,230.19 402.54,225.25 405.84,223.16 C407.36,222.16 409.36,222.16 410.76,221.04 C412.57,219.59 412.69,216.84 412.06,214.6 C410.76,209.93 407.06,206.35 404.85,202.03 C401.446412,195.373383 401.838509,187.409189 405.879498,181.119088 C409.920486,174.828987 417.000922,171.161623 424.47,171.49 C426.33,171.57 428.63,171.69 429.58,170.1 C430.31,168.87 429.79,167.29 430.02,165.88 C431.29,158.29 446.88,161.14 449.7,153.88 C451.56,149.08 444.22,146.88 440.87,145.16 C434.07,141.64 428.42,136.4 421.49,133.16 C420.35,132.63 419.18,132.16 418,131.69 C420.516911,132.40444 422.974345,133.313858 425.35,134.41 C432.28,137.66 437.93,142.9 444.73,146.41 C448.08,148.15 455.43,150.34 453.56,155.14 C450.75,162.4 435.15,159.55 433.89,167.14 C433.65,168.55 434.18,170.14 433.45,171.36 C432.45,172.95 430.2,172.83 428.34,172.75 C420.870386,172.428809 413.793305,176.10322 409.758445,182.397519 C405.723585,188.691819 405.339502,196.656669 408.75,203.31 C410.95,207.64 414.65,211.22 415.96,215.89 C416.58,218.13 416.46,220.89 414.65,222.33 C413.26,223.46 411.26,223.49 409.74,224.45 C406.44,226.54 407.06,231.45 408.26,235.19 C410.036269,240.724155 412.205109,246.124531 414.75,251.35 C416.93,255.8 419.8,260.47 424.51,262.02 C417.63,268.44 407.21,269.81 398.01,267.87 C395.543309,267.342932 393.119794,266.63092 390.76,265.74 C391.9,266.06 393.02,266.34 394.16,266.58 Z" id="Path" fill="#000000" fill-rule="nonzero" opacity="0.1"></path>
        </g>
    </g>
</svg>