<svg height="512" viewBox="0 0 64 64" width="512" xmlns="http://www.w3.org/2000/svg"><g id="_03-E-learning" data-name="03-E-learning"><path d="m6 7h52a2 2 0 0 1 2 2v38a0 0 0 0 1 0 0h-56a0 0 0 0 1 0 0v-38a2 2 0 0 1 2-2z" fill="#fbfbfb"/><path d="m60 47 3 6h-23l-1-3h-14l-1 3h-23l3-6h6 1 22 24z" fill="#d6e0eb"/><path d="m40 53h23a4 4 0 0 1 -4 4h-54a4 4 0 0 1 -4-4z" fill="#5c6979"/><path d="m61 55h-51a2 2 0 0 1 -2-2h-7a4 4 0 0 0 4 4h54a4 4 0 0 0 4-4 2 2 0 0 1 -2 2z" fill="#393d48"/><path d="m10.1 48.257.5-1.257h-6.6l-3 6h23l.667-2h-12.713a2 2 0 0 1 -1.854-2.743z" fill="#c1cfe8"/><path d="m39.333 51 .667 2h23l-1-2z" fill="#c1cfe8"/><path d="m39 50 1 3h-16l1-3z" fill="#5c6979"/><path d="m27 50h-2l-1 3h16l-.334-1c-11.678-.039-12.666-2-12.666-2z" fill="#393d48"/><path d="m22 14h34v24h-34z" fill="#37664c"/><path d="m32 18h8v4h-8z" fill="#fbb962"/><path d="m40 31.72a1.713 1.713 0 0 1 -.09.55l-.91 2.73h-6v-3.77a3.939 3.939 0 0 1 .7-2.25l2.23-3.28a1.253 1.253 0 0 1 1.54-.62 1.586 1.586 0 0 1 .91 1.5 1.776 1.776 0 0 1 -.22.86l-.78 1.38 1.96 1.54a1.725 1.725 0 0 1 .66 1.36z" fill="#f4baa6"/><path d="m20 45.59v1.41h-4v-1.41a5.736 5.736 0 0 1 .12-1.17l.88-4.42h2l.88 4.42a5.736 5.736 0 0 1 .12 1.17z" fill="#555fa3"/><path d="m13.11 35.22-.11-.22 2-1 3 2-2 2-1 1z" fill="#ceab8b"/><path d="m20 38-1 2h-2l-1-2 2-2z" fill="#555fa3"/><path d="m39 35-4 12h-15v-1.41a5.736 5.736 0 0 0 -.12-1.17l-.88-4.42 1-2 1 1 1.88-3.77c3.51.98 6.12 5 6.12 8.77l3-9z" fill="#fbb962"/><path d="m22.88 35.23-1.88 3.77-1-1-2-2 3-2 2 1z" fill="#ceab8b"/><path d="m16 38 1 2-.88 4.42a5.736 5.736 0 0 0 -.12 1.17v1.41h-9v-4a8 8 0 0 1 6.11-7.78l1.89 3.78z" fill="#fbb962"/><path d="m28 20c0 5-3 7-3 7l-.08-.01a5.365 5.365 0 0 0 .08-.99v-7s-4 3-8 3v-3s-4 3-6 3v4a5.365 5.365 0 0 0 .08.99l-.08.01s-3-2-3-7a7.115 7.115 0 0 1 1.55-4.93 3.256 3.256 0 0 1 2.45-1.07l2-2s1-1 4-1c4 0 10 4 10 9z" fill="#784132"/><path d="m25 19v7a5.365 5.365 0 0 1 -.08.99 6.989 6.989 0 0 1 -13.84 0 5.365 5.365 0 0 1 -.08-.99v-4c2 0 6-3 6-3v3c4 0 8-3 8-3z" fill="#f4baa6"/><path d="m15 32.32v1.68l3 2 3-2v-1.68a6.958 6.958 0 0 1 -6 0z" fill="#d68975"/><path d="m15 32.32v1.68l1 .667 5-1.667v-.68a6.958 6.958 0 0 1 -6 0z" fill="#c96c55"/><path d="m17 22v1c4 0 8-3 8-3v-1s-4 3-8 3z" fill="#d68975"/><path d="m17 19s-4 3-6 3v1c2 0 6-3 6-3z" fill="#d68975"/><path d="m9 19s0-4 3-5a3.256 3.256 0 0 0 -2.45 1.07 7.115 7.115 0 0 0 -1.55 4.93c0 5 3 7 3 7l.08-.01a5.365 5.365 0 0 1 -.08-.99v-4s-2 0-2-3z" fill="#4c2c21"/><path d="m26 22a7.74 7.74 0 0 1 -1-3v7a5.365 5.365 0 0 1 -.08.99l.08.01s3-2 3-7c0-.14-.021-.275-.031-.413-.243 2.413-1.969 2.413-1.969 2.413z" fill="#4c2c21"/><path d="m24.784 27.6a2.968 2.968 0 0 0 -1.784-.6 2.988 2.988 0 0 0 -1.93 5.279 6.8 6.8 0 0 0 3.714-4.679z" fill="#f2a283"/><path d="m16 30a2.986 2.986 0 0 0 -4.795-2.39 6.929 6.929 0 0 0 3.723 4.671 2.983 2.983 0 0 0 1.072-2.281z" fill="#f2a283"/><path d="m16 29h4a1.944 1.944 0 0 1 -1.065 1.755 1.907 1.907 0 0 1 -1.87 0 1.944 1.944 0 0 1 -1.065-1.755z" fill="#d9896d"/><path d="m33.96 33.278a1.29 1.29 0 0 1 -.96-1.253v2.975h6l.333-1h-.333a20.809 20.809 0 0 1 -5.04-.722z" fill="#f2a283"/><path d="m12 43.422a3.579 3.579 0 0 1 2.249-3.322l.654-.261.097.161.333-.333 1.25-.5-.25-.5-.333-.667-1 1-1.89-3.78a8.064 8.064 0 0 0 -6.11 7.78v4h8.578a3.578 3.578 0 0 1 -3.578-3.578z" fill="#df8958"/><path d="m17.621 42.515a2 2 0 0 1 1.585-1.482l-.206-1.033h-2l-.88 4.42a5.736 5.736 0 0 0 -.12 1.17v1.41h1v-2z" fill="#38406f"/><path d="m31.683 44.12 3.317-9.12h-3l-3 9v2a2.854 2.854 0 0 0 2.683-1.88z" fill="#df8958"/><path d="m45 3v8a2 2 0 0 0 2 2h2v4l7-4h5a2 2 0 0 0 2-2v-8a2 2 0 0 0 -2-2h-14a2 2 0 0 0 -2 2z" fill="#fbb962"/><path d="m42 39h14a1 1 0 0 0 1-1v-22h-2v21h-13z"/><path d="m29 13h15v2h-15z"/><path d="m43 21h10v2h-10z"/><path d="m43 25h10v2h-10z"/><path d="m43 29h10v2h-10z"/><path d="m43 33h10v2h-10z"/><path d="m32 17a1 1 0 0 0 -1 1v4a1 1 0 0 0 1 1h8a1 1 0 0 0 1-1v-4a1 1 0 0 0 -1-1zm7 4h-6v-2h6z"/><path d="m61 0h-14a3 3 0 0 0 -3 3v8a3 3 0 0 0 3 3h1v3a1 1 0 0 0 1.5.868l6.766-3.868h4.734a3 3 0 0 0 3-3v-8a3 3 0 0 0 -3-3zm1 11a1 1 0 0 1 -1 1h-5a.993.993 0 0 0 -.5.132l-5.5 3.145v-2.277a1 1 0 0 0 -1-1h-2a1 1 0 0 1 -1-1v-8a1 1 0 0 1 1-1h14a1 1 0 0 1 1 1z"/><path d="m48 3h12v2h-12z"/><path d="m48 6h12v2h-12z"/><path d="m48 9h12v2h-12z"/><path d="m59 16h2v10h-2z"/><path d="m7 52h2v2h-2z"/><path d="m64 53a1 1 0 0 0 -.1-.447l-2.9-5.789v-14.764h-2v14h-22.612l3.561-10.684.911-2.734a2.725 2.725 0 0 0 -.9-3.006l-1.288-1.011.357-.629a2.786 2.786 0 0 0 .193-2.3 2.444 2.444 0 0 0 -1.387-1.482 2.218 2.218 0 0 0 -2.724.987l-2.241 3.276a4.982 4.982 0 0 0 -.87 2.818v2.765a1 1 0 0 0 -.949.684l-1.823 5.471a9.864 9.864 0 0 0 -5.365-5.623.979.979 0 0 0 -.416-.427l-1.447-.723v-.464a8.021 8.021 0 0 0 3.835-5.3 9.585 9.585 0 0 0 3.165-7.618c0-5.706-6.673-10-11-10-3.25 0-4.491 1.077-4.707 1.293l-1.728 1.728a4.231 4.231 0 0 0 -2.765 1.379 8.15 8.15 0 0 0 -1.8 5.6 9.585 9.585 0 0 0 3.165 7.617 8.021 8.021 0 0 0 3.835 5.301v.464l-1.447.723a.983.983 0 0 0 -.372.348 9.015 9.015 0 0 0 -6.181 8.547v3h-1v-37a1 1 0 0 1 1-1h37v-2h-37a3 3 0 0 0 -3 3v37.764l-2.895 5.789a1 1 0 0 0 -.1.447h-.005v.026s0 .045.006.067a5 5 0 0 0 4.994 4.907h54a5 5 0 0 0 4.991-4.907c0-.022.006-.044.006-.067s0-.017 0-.026zm-30-21.765a3 3 0 0 1 .522-1.692l2.283-3.35c.013-.026.136-.243.3-.182a.466.466 0 0 1 .232.288.808.808 0 0 1 -.048.651l-.781 1.378a1 1 0 0 0 .253 1.279l1.964 1.542a.722.722 0 0 1 .275.571.742.742 0 0 1 -.037.229l-.684 2.051h-4.279zm-6 12.765a1 1 0 0 0 1.949.316l2.772-8.316h4.892l-3.334 10h-13.279v-.406a7.032 7.032 0 0 0 -.136-1.373l-.816-4.08.226-.453.019.019a1 1 0 0 0 .707.293.959.959 0 0 0 .16-.013 1 1 0 0 0 .735-.54l1.479-2.959a8.488 8.488 0 0 1 4.626 7.512zm-13.072-8.846 1.5 1-1.156 1.157-.932-1.865zm6.73.293-.932 1.865-1.156-1.157 1.5-1zm-3.658-.647-1.391-.927a7.564 7.564 0 0 0 2.782 0zm0 2.616.783.783-.4.8h-.764l-.4-.8zm-1 8.18a5.041 5.041 0 0 1 .1-.98l.72-3.616h.36l.723 3.614a5.041 5.041 0 0 1 .1.98v.406h-2.003zm-8-25.596a6.217 6.217 0 0 1 1.3-4.27 2.259 2.259 0 0 1 1.7-.73 1 1 0 0 0 .707-.293l1.975-1.976c.008-.007.873-.731 3.318-.731 3.472 0 9 3.661 9 8a8.84 8.84 0 0 1 -1 4.279v-5.279a1 1 0 0 0 -1.6-.8 15.98 15.98 0 0 1 -6.4 2.734v-1.934a1 1 0 0 0 -1.6-.8c-1.552 1.163-4.253 2.8-5.4 2.8a1 1 0 0 0 -1 1v2.279a8.84 8.84 0 0 1 -1-4.279zm3 6v-3.142a15.233 15.233 0 0 0 4-1.948v1.09a1 1 0 0 0 1 1 14.862 14.862 0 0 0 7-2.169v5.169a6 6 0 0 1 -12 0zm-4 17a7.009 7.009 0 0 1 4.6-6.57l1.508 3.017a1 1 0 0 0 1.6.26l.019-.019.226.453-.816 4.08a7.032 7.032 0 0 0 -.137 1.373v.406h-7zm51 13h-54a3 3 0 0 1 -2.816-2h2.816v-2h-2.382l2-4h54.764l2 4h-20.661l-.772-2.316a1 1 0 0 0 -.949-.684h-14a1 1 0 0 0 -.949.684l-.772 2.316h-12.279v2h50.816a3 3 0 0 1 -2.816 2zm-20.387-4h-13.226l.334-1h12.558z"/><path d="m59 28h2v2h-2z"/></g></svg>